<svg xmlns="http://www.w3.org/2000/svg" xmlns:xlink="http://www.w3.org/1999/xlink"><symbol id="icon-angle-down" viewBox="0 0 1792 1792"><path d="M1395 736q0 13-10 23l-466 466q-10 10-23 10t-23-10l-466-466q-10-10-10-23t10-23l50-50q10-10 23-10t23 10l393 393 393-393q10-10 23-10t23 10l50 50q10 10 10 23z"/></symbol><symbol id="icon-angle-left" viewBox="0 0 1792 1792"><path d="M1203 544q0 13-10 23l-393 393 393 393q10 10 10 23t-10 23l-50 50q-10 10-23 10t-23-10l-466-466q-10-10-10-23t10-23l466-466q10-10 23-10t23 10l50 50q10 10 10 23z"/></symbol><symbol id="icon-angle-right" viewBox="0 0 1792 1792"><path d="M1171 960q0 13-10 23l-466 466q-10 10-23 10t-23-10l-50-50q-10-10-10-23t10-23l393-393-393-393q-10-10-10-23t10-23l50-50q10-10 23-10t23 10l466 466q10 10 10 23z"/></symbol><symbol id="icon-angle-up" viewBox="0 0 1792 1792"><path d="M1395 1184q0 13-10 23l-50 50q-10 10-23 10t-23-10l-393-393-393 393q-10 10-23 10t-23-10l-50-50q-10-10-10-23t10-23l466-466q10-10 23-10t23 10l466 466q10 10 10 23z"/></symbol><symbol id="icon-api" viewBox="-317 118 1792 1792">
<g id="API">
	<g id="API_1_">
		<g>
			<path d="M1252.5,246h-1347c-52.2,0-94.5,42.3-94.5,94.5v1347c0,52.2,42.3,94.5,94.5,94.5h1347c52.2,0,94.5-42.3,94.5-94.5v-1347
				C1347,288.3,1304.7,246,1252.5,246z M343.2,1172.8L319,1106H150l-24.8,66.8H29.5l152.4-394h105.2l151.8,394H343.2z M711.3,1032.8
				H610.9v140H527v-394h184.3c85.7,0,132.3,57.9,132.3,127C843.7,974.3,796.4,1032.8,711.3,1032.8z M1025.7,1172.8h-83.9v-394h83.9
				V1172.8z M173.1,1032.2H296l-61.4-169.6L173.1,1032.2z M700.1,852.6h-89.2v106.3h89.2c33.1,0,57.9-20.7,57.9-53.2
				C758,872.7,733.2,852.6,700.1,852.6z"/>
		</g>
	</g>
</g>
<g id="Layer_1_1_">
</g>
</symbol><symbol id="icon-appfog" viewBox="0 0 1792 1792">
<path d="M291,696c39-39,82-54,138-54c117,0,211,94,211,210v226h128c12-145,110-256,256-256c39,0,72-25,72-64c0-38-33-64-72-64
  c-97,0-187,35-256,93v-99c17-124,127-228,256-228c67,0,135,37,183,85c27,28,72,28,99,0c28-27,28-71,0-99c-74-74-177-126-282-126
  c-171,0-308,117-363,269c-62-54-143-88-232-88c-93,0-171,30-238,96c-27,28-27,72,0,99C219,724,263,724,291,696z M1388,704
  c-39,0-71,25-71,64s32,64,71,64c149,0,276,127,276,256c0,130-117,236-256,236c-6,0-1096,0-1100,0c-103,0-180-76-180-168
  c0-93,87-196,180-196c38,0,76-25,76-64c0-38-38-64-76-64C138,832,0,986,0,1156c0,169,128,316,308,316c4,0,1094,0,1100,0
  c217,0,384-177,384-384S1615,704,1388,704z"/>
</symbol><symbol id="icon-archive" viewBox="0 0 1792 1792"><path d="M1088 832q0-26-19-45t-45-19h-256q-26 0-45 19t-19 45 19 45 45 19h256q26 0 45-19t19-45zm576-192v960q0 26-19 45t-45 19h-1408q-26 0-45-19t-19-45v-960q0-26 19-45t45-19h1408q26 0 45 19t19 45zm64-448v256q0 26-19 45t-45 19h-1536q-26 0-45-19t-19-45v-256q0-26 19-45t45-19h1536q26 0 45 19t19 45z"/></symbol><symbol id="icon-arrow-down" viewBox="0 0 1792 1792"><path d="M1675 832q0 53-37 90l-651 652q-39 37-91 37-53 0-90-37l-651-652q-38-36-38-90 0-53 38-91l74-75q39-37 91-37 53 0 90 37l294 294v-704q0-52 38-90t90-38h128q52 0 90 38t38 90v704l294-294q37-37 90-37 52 0 91 37l75 75q37 39 37 91z"/></symbol><symbol id="icon-arrow-left" viewBox="0 0 1792 1792"><path d="M1664 896v128q0 53-32.5 90.5t-84.5 37.5h-704l293 294q38 36 38 90t-38 90l-75 76q-37 37-90 37-52 0-91-37l-651-652q-37-37-37-90 0-52 37-91l651-650q38-38 91-38 52 0 90 38l75 74q38 38 38 91t-38 91l-293 293h704q52 0 84.5 37.5t32.5 90.5z"/></symbol><symbol id="icon-arrow-right" viewBox="0 0 1792 1792"><path d="M1600 960q0 54-37 91l-651 651q-39 37-91 37-51 0-90-37l-75-75q-38-38-38-91t38-91l293-293h-704q-52 0-84.5-37.5t-32.5-90.5v-128q0-53 32.5-90.5t84.5-37.5h704l-293-294q-38-36-38-90t38-90l75-75q38-38 90-38 53 0 91 38l651 651q37 35 37 90z"/></symbol><symbol id="icon-arrow-up" viewBox="0 0 1792 1792"><path d="M1675 971q0 51-37 90l-75 75q-38 38-91 38-54 0-90-38l-294-293v704q0 52-37.5 84.5t-90.5 32.5h-128q-53 0-90.5-32.5t-37.5-84.5v-704l-294 293q-36 38-90 38t-90-38l-75-75q-38-38-38-90 0-53 38-91l651-651q35-37 90-37 54 0 91 37l651 651q37 39 37 91z"/></symbol><symbol id="icon-arrows-alt" viewBox="0 0 1792 1792"><path d="M1411 541l-355 355 355 355 144-144q29-31 70-14 39 17 39 59v448q0 26-19 45t-45 19h-448q-42 0-59-40-17-39 14-69l144-144-355-355-355 355 144 144q31 30 14 69-17 40-59 40h-448q-26 0-45-19t-19-45v-448q0-42 40-59 39-17 69 14l144 144 355-355-355-355-144 144q-19 19-45 19-12 0-24-5-40-17-40-59v-448q0-26 19-45t45-19h448q42 0 59 40 17 39-14 69l-144 144 355 355 355-355-144-144q-31-30-14-69 17-40 59-40h448q26 0 45 19t19 45v448q0 42-39 59-13 5-25 5-26 0-45-19z"/></symbol><symbol id="icon-arrows-h" viewBox="0 0 1792 1792"><path d="M1792 896q0 26-19 45l-256 256q-19 19-45 19t-45-19-19-45v-128h-1024v128q0 26-19 45t-45 19-45-19l-256-256q-19-19-19-45t19-45l256-256q19-19 45-19t45 19 19 45v128h1024v-128q0-26 19-45t45-19 45 19l256 256q19 19 19 45z"/></symbol><symbol id="icon-arrows-v" viewBox="0 0 1792 1792"><path d="M1216 320q0 26-19 45t-45 19h-128v1024h128q26 0 45 19t19 45-19 45l-256 256q-19 19-45 19t-45-19l-256-256q-19-19-19-45t19-45 45-19h128v-1024h-128q-26 0-45-19t-19-45 19-45l256-256q19-19 45-19t45 19l256 256q19 19 19 45z"/></symbol><symbol id="icon-arrows" viewBox="0 0 1792 1792"><path d="M1792 896q0 26-19 45l-256 256q-19 19-45 19t-45-19-19-45v-128h-384v384h128q26 0 45 19t19 45-19 45l-256 256q-19 19-45 19t-45-19l-256-256q-19-19-19-45t19-45 45-19h128v-384h-384v128q0 26-19 45t-45 19-45-19l-256-256q-19-19-19-45t19-45l256-256q19-19 45-19t45 19 19 45v128h384v-384h-128q-26 0-45-19t-19-45 19-45l256-256q19-19 45-19t45 19l256 256q19 19 19 45t-19 45-45 19h-128v384h384v-128q0-26 19-45t45-19 45 19l256 256q19 19 19 45z"/></symbol><symbol id="icon-automation" viewBox="-279 81 1792 1792">
<g id="Automation">
	<g id="Automation_1_">
		<path d="M570.1,1436v-103l-112.8-18.8c-5.5-19.4-13.2-37.9-22.9-55.2h0l66.5-93.1l-72.8-72.8l-93.1,66.5
			c-17.3-9.6-35.7-17.4-55.2-22.9L261,1023.9H158l-18.8,112.8c-19.4,5.5-37.9,13.2-55.2,22.9l-93.1-66.5l-72.8,72.8l66.5,93.1
			c-9.6,17.3-17.4,35.7-22.8,55.2l-112.8,18.8v103l112.8,18.8c5.5,19.4,13.2,37.9,22.9,55.2l-66.5,93.1l72.8,72.8l93.1-66.5
			c17.3,9.6,35.7,17.4,55.2,22.9L158,1745h103l18.8-112.8c19.4-5.5,37.9-13.2,55.2-22.9l93.1,66.5l72.8-72.8l-66.5-93.1
			c9.6-17.3,17.4-35.7,22.9-55.2L570.1,1436z M209.5,1487.5c-56.9,0-103-46.1-103-103s46.1-103,103-103s103,46.1,103,103
			C312.5,1441.4,266.4,1487.5,209.5,1487.5z"/>
		<path d="M1381.2,578.3l-58.3-135.1l-158.6,39.2c-18.2-22.3-38.8-42.3-61.2-59.4l-0.1,0l34.5-159.7L1000.8,209l-84.4,139.9
			c-28.1-2.9-56.7-2.5-85.3,1.2l-88.5-137.3l-135.1,58.3l39.2,158.6c-22.3,18.2-42.3,38.8-59.4,61.2l-159.7-34.5l-54.3,136.8
			l139.9,84.4c-2.9,28.1-2.5,56.7,1.3,85.3l-137.3,88.5l58.3,135.1L594,947.3c18.2,22.3,38.8,42.3,61.2,59.4l-34.5,159.7l136.8,54.3
			l84.4-139.9c28.1,2.9,56.7,2.5,85.3-1.2l88.5,137.3l135.1-58.3l-39.2-158.6c22.3-18.2,42.3-38.8,59.4-61.2l159.7,34.5l54.3-136.8
			l-139.9-84.4c2.9-28.1,2.5-56.7-1.2-85.3L1381.2,578.3z M937.4,850c-74.6,32.2-161.2-2.2-193.4-76.8
			c-32.2-74.7,2.2-161.2,76.8-193.4s161.2,2.2,193.4,76.8S1012,817.8,937.4,850z"/>
	</g>
</g>
<g id="Layer_1_1_">
</g>
</symbol><symbol id="icon-autoscale" viewBox="-279 81 1792 1792">
<g id="Autoscale">
	<g id="Autoscale_1_">
		<path d="M1293.7,606.3l90-335.9c3.4-12.7-0.2-26.3-9.5-35.7c-9.3-9.3-22.9-13-35.6-9.6l-335.8,90c-12.7,3.4-22.8,13.5-26.2,26.2
			c-3.4,12.7,0.1,26.4,9.5,35.7l87.6,87.6L839,699.3l-39.5-39.5c-5.6-5.6-14.6-6.8-22.2-4.8c-3.8,1-7.6,3.5-10.3,6.1
			c-2.7,2.7-4.9,6.3-5.9,10.1l-53.8,200.4c-2,7.6,0.1,15.8,5.6,21.3c5.6,5.6,13.6,7.8,21.2,5.7L934.5,845c7.6-2,14.4-8.9,16.5-16.5
			c2-7.6,0.8-16.6-4.8-22.2l-39.2-39.2l234.5-234.5l90.4,90.4c9.3,9.3,23,12.9,35.7,9.5c6.4-1.7,12.1-5.1,16.6-9.6
			C1288.7,618.4,1292,612.7,1293.7,606.3z"/>
		<path d="M-59.7,1377.7l-90,335.9c-3.4,12.7,0.2,26.3,9.5,35.7c9.3,9.3,22.9,13,35.6,9.6l335.8-90c12.7-3.4,22.5-13.2,25.9-25.9
			c3.4-12.7-0.4-26.1-9.7-35.5l-87.3-87.3l234.5-234.5l39.2,39.2c5.6,5.6,14.8,6.5,22.4,4.5c3.8-1,7.8-3.6,10.5-6.3
			c2.7-2.7,5-6.4,6-10.2l53.8-200.4c2-7.6-0.1-15.8-5.6-21.3c-5.6-5.6-13.6-7.8-21.2-5.7L299.5,1139c-7.6,2-14.7,9.1-16.7,16.7
			c-2,7.6-1,16.9,4.5,22.4l39.5,39.5L92.3,1452.2l-90.6-90.6c-9.3-9.3-22.7-13.2-35.5-9.7c-6.4,1.7-11.9,4.9-16.5,9.5
			C-54.8,1365.7-58,1371.3-59.7,1377.7z"/>
		<path d="M231.3,315.3l-335.9-90c-12.7-3.4-26.3,0.2-35.7,9.5c-9.3,9.3-13,22.9-9.6,35.6l90,335.8c3.4,12.7,13.4,22.7,26.1,26.1
			s26.3-0.2,35.7-9.5l87.2-87.2l234.5,234.5l-39.1,39.1c-5.6,5.6-6.7,14.6-4.7,22.2c1,3.8,3.5,7.7,6.2,10.4
			c2.7,2.7,6.3,4.9,10.1,5.9l200.4,53.8c7.6,2,15.8-0.1,21.3-5.6c5.6-5.6,7.8-13.6,5.7-21.2L470,674.5c-2-7.6-8.9-14.5-16.5-16.5
			s-16.7-0.8-22.2,4.7l-39.6,39.6L157.1,467.8l90.8-90.8c9.3-9.3,13-22.9,9.5-35.7c-1.7-6.4-5-12-9.6-16.6
			C243.4,320.3,237.7,317,231.3,315.3z"/>
		<path d="M1002.7,1668.7l335.9,90c12.7,3.4,26.3-0.2,35.7-9.5c9.3-9.3,13-22.9,9.6-35.6l-90-335.8c-3.4-12.7-13.3-22.6-26-26
			c-12.7-3.4-26.2,0.3-35.6,9.7l-87.7,87.7L910,1214.6l39.6-39.6c5.6-5.6,6.6-14.8,4.6-22.4c-1-3.8-3.6-7.7-6.2-10.4s-6.3-5-10.1-6
			l-200.4-53.8c-7.6-2-15.8,0.1-21.3,5.6s-7.8,13.6-5.7,21.2l53.6,200.2c2,7.6,9.1,14.6,16.7,16.7c7.6,2,16.8,1,22.3-4.6l39.1-39.1
			l234.5,234.5l-90.2,90.2c-9.3,9.3-13.1,22.8-9.7,35.5c1.7,6.4,5,12,9.5,16.5C990.7,1663.8,996.3,1667,1002.7,1668.7z"/>
	</g>
</g>
<g id="Layer_1_1_">
</g>
</symbol><symbol id="icon-backup" viewBox="0 0 1536 1616"><title>backup</title><path d="M1503.45,84.5Q1418.95,0,1299.95,0H340Q221,0,136.45,84.5T52,288v934.88h1536V288Q1587.95,169,1503.45,84.5ZM817.73,1040c-98.15,0-188.61-33.33-261-88.57l67.62-68.57c54.76,38.56,121.43,61.9,193.33,61.9,184.32,0,333.32-149,333.32-333.33S1002,278.11,817.69,278.11s-333.33,149-333.33,333.33H627.21L436.73,801.91,246.26,611.45H389.13c0-236.68,191.92-428.58,428.58-428.58s428.6,191.88,428.6,428.56S1054.39,1040,817.73,1040ZM52,1328q0,119,84.5,203.5t203.5,84.5h960q119,0,203.5-84.5t84.5-203.5v-30.11H52V1328Z" transform="translate(-51.95)"/></symbol><symbol id="icon-ban" viewBox="0 0 1792 1792"><path d="M1440 893q0-161-87-295l-754 753q137 89 297 89 111 0 211.5-43.5t173.5-116.5 116-174.5 43-212.5zm-999 299l755-754q-135-91-300-91-148 0-273 73t-198 199-73 274q0 162 89 299zm1223-299q0 157-61 300t-163.5 246-245 164-298.5 61-298.5-61-245-164-163.5-246-61-300 61-299.5 163.5-245.5 245-164 298.5-61 298.5 61 245 164 163.5 245.5 61 299.5z"/></symbol><symbol id="icon-bare-metal" viewBox="-263 173 1792 1792">
<g id="Layer_1_1_">
</g>
<path d="M573,1187.5v120h120v-120H573z M-199,1307v120h1664v-120H-199z M752,831.3h119V1069H752V831.3z M989.7,831.3h119V1069h-119
	V831.3z M1227.3,831.3h119V1069h-119V831.3z M38.7,1069c-65.9,0-119-52.8-119-119s52.8-119,119-119c65.1,0,119,52.8,119,119
	S103.8,1069,38.7,1069z M-199,712.5v475h1664v-475H-199z"/>
</symbol><symbol id="icon-bell" viewBox="0 0 1664 1792"><title>bell</title><path d="M1728,1408q0,52-38,90t-90,38H1152q0,106-75,181t-181,75q-106,0-181-75t-75-181H192q-52,0-90-38t-38-90a878.38,878.38,0,0,0,91-88q41-46,85-119.5A898.34,898.34,0,0,0,314.5,1042q30.5-85,50-206T384,576q0-152,117-282.5T808,135a99.6,99.6,0,0,1-8-39q0-40,28-68T896,0q40,0,68,28t28,68a99.6,99.6,0,0,1-8,39q190,28,307,158.5T1408,576q0,139,19.5,260t50,206a898.34,898.34,0,0,0,74.5,158.5q44,73.5,85,119.5A878.38,878.38,0,0,0,1728,1408Z" transform="translate(-64)"/></symbol><symbol id="icon-book" viewBox="0 0 1792 1792"><path d="M1703 478q40 57 18 129l-275 906q-19 64-76.5 107.5t-122.5 43.5h-923q-77 0-148.5-53.5t-99.5-131.5q-24-67-2-127 0-4 3-27t4-37q1-8-3-21.5t-3-19.5q2-11 8-21t16.5-23.5 16.5-23.5q23-38 45-91.5t30-91.5q3-10 .5-30t-.5-28q3-11 17-28t17-23q21-36 42-92t25-90q1-9-2.5-32t.5-28q4-13 22-30.5t22-22.5q19-26 42.5-84.5t27.5-96.5q1-8-3-25.5t-2-26.5q2-8 9-18t18-23 17-21q8-12 16.5-30.5t15-35 16-36 19.5-32 26.5-23.5 36-11.5 47.5 5.5l-1 3q38-9 51-9h761q74 0 114 56t18 130l-274 906q-36 119-71.5 153.5t-128.5 34.5h-869q-27 0-38 15-11 16-1 43 24 70 144 70h923q29 0 56-15.5t35-41.5l300-987q7-22 5-57 38 15 59 43zm-1064 2q-4 13 2 22.5t20 9.5h608q13 0 25.5-9.5t16.5-22.5l21-64q4-13-2-22.5t-20-9.5h-608q-13 0-25.5 9.5t-16.5 22.5zm-83 256q-4 13 2 22.5t20 9.5h608q13 0 25.5-9.5t16.5-22.5l21-64q4-13-2-22.5t-20-9.5h-608q-13 0-25.5 9.5t-16.5 22.5z"/></symbol><symbol id="icon-calendar" viewBox="0 0 1792 1792"><path d="M192 1664h1408v-1024h-1408v1024zm384-1216v-288q0-14-9-23t-23-9h-64q-14 0-23 9t-9 23v288q0 14 9 23t23 9h64q14 0 23-9t9-23zm768 0v-288q0-14-9-23t-23-9h-64q-14 0-23 9t-9 23v288q0 14 9 23t23 9h64q14 0 23-9t9-23zm384-64v1280q0 52-38 90t-90 38h-1408q-52 0-90-38t-38-90v-1280q0-52 38-90t90-38h128v-96q0-66 47-113t113-47h64q66 0 113 47t47 113v96h384v-96q0-66 47-113t113-47h64q66 0 113 47t47 113v96h128q52 0 90 38t38 90z"/></symbol><symbol id="icon-caret-down" viewBox="0 0 1792 1792"><path d="M1408 704q0 26-19 45l-448 448q-19 19-45 19t-45-19l-448-448q-19-19-19-45t19-45 45-19h896q26 0 45 19t19 45z"/></symbol><symbol id="icon-caret-left" viewBox="0 0 1792 1792"><path d="M1216 448v896q0 26-19 45t-45 19-45-19l-448-448q-19-19-19-45t19-45l448-448q19-19 45-19t45 19 19 45z"/></symbol><symbol id="icon-caret-right" viewBox="0 0 1792 1792"><path d="M1152 896q0 26-19 45l-448 448q-19 19-45 19t-45-19-19-45v-896q0-26 19-45t45-19 45 19l448 448q19 19 19 45z"/></symbol><symbol id="icon-caret-up" viewBox="0 0 1792 1792"><path d="M1408 1216q0 26-19 45t-45 19h-896q-26 0-45-19t-19-45 19-45l448-448q19-19 45-19t45 19l448 448q19 19 19 45z"/></symbol><symbol id="icon-centurylink" viewBox="0 0 1792 1792">
<path d="M965.8,1664c90.5-7.6,175.6-31.6,255.3-68.7l-255.3-440.7V1664z M826.2,128c-90.5,7.6-176.7,31.6-255.3,68.7l255.3,440.7
	V128z M1154.5,965.8l441.8,254.2c36-78.5,60-163.6,67.6-254.2H1154.5z M196.7,572c-37.1,78.5-60,163.6-68.7,254.2h510.5L196.7,572z
	 M128,965.8c8.7,90.5,31.6,175.6,68.7,254.2l441.8-254.2H128z M1664,826.2c-7.6-90.5-31.6-175.6-67.6-254.2l-441.8,254.2H1664z
	 M1341.1,1528.7c72-51.3,135.3-114.5,186.5-186.5l-441.8-255.3L1341.1,1528.7z M1527.6,452c-51.3-72-114.5-135.3-186.5-186.5
	l-254.2,441.8L1527.6,452z M570.9,1595.3c78.5,37.1,164.7,61.1,255.3,68.7v-509.5L570.9,1595.3z M1221.1,196.7
	c-79.6-37.1-164.7-61.1-255.3-68.7v509.5L1221.1,196.7z M450.9,265.5C377.8,316.7,314.5,380,264.4,452l440.7,255.3L450.9,265.5z
	 M264.4,1342.2c50.2,72,113.5,135.3,186.5,186.5l254.2-441.8L264.4,1342.2z"/>
</symbol><symbol id="icon-chat" viewBox="0 0 1792 1792"><path d="M1408 768q0 139-94 257t-256.5 186.5-353.5 68.5q-86 0-176-16-124 88-278 128-36 9-86 16h-3q-11 0-20.5-8t-11.5-21q-1-3-1-6.5t.5-6.5 2-6l2.5-5 3.5-5.5 4-5 4.5-5 4-4.5q5-6 23-25t26-29.5 22.5-29 25-38.5 20.5-44q-124-72-195-177t-71-224q0-139 94-257t256.5-186.5 353.5-68.5 353.5 68.5 256.5 186.5 94 257zm384 256q0 120-71 224.5t-195 176.5q10 24 20.5 44t25 38.5 22.5 29 26 29.5 23 25q1 1 4 4.5t4.5 5 4 5 3.5 5.5l2.5 5 2 6 .5 6.5-1 6.5q-3 14-13 22t-22 7q-50-7-86-16-154-40-278-128-90 16-176 16-271 0-472-132 58 4 88 4 161 0 309-45t264-129q125-92 192-212t67-254q0-77-23-152 129 71 204 178t75 230z"/></symbol><symbol id="icon-check-circle" viewBox="0 0 1792 1792"><path d="M1412 734q0-28-18-46l-91-90q-19-19-45-19t-45 19l-408 407-226-226q-19-19-45-19t-45 19l-91 90q-18 18-18 46 0 27 18 45l362 362q19 19 45 19 27 0 46-19l543-543q18-18 18-45zm252 162q0 209-103 385.5t-279.5 279.5-385.5 103-385.5-103-279.5-279.5-103-385.5 103-385.5 279.5-279.5 385.5-103 385.5 103 279.5 279.5 103 385.5z"/></symbol><symbol id="icon-check" viewBox="0 0 1792 1792"><path d="M1671 566q0 40-28 68l-724 724-136 136q-28 28-68 28t-68-28l-136-136-362-362q-28-28-28-68t28-68l136-136q28-28 68-28t68 28l294 295 656-657q28-28 68-28t68 28l136 136q28 28 28 68z"/></symbol><symbol id="icon-chevron-down" viewBox="0 0 1792 1792"><path d="M1683 808l-742 741q-19 19-45 19t-45-19l-742-741q-19-19-19-45.5t19-45.5l166-165q19-19 45-19t45 19l531 531 531-531q19-19 45-19t45 19l166 165q19 19 19 45.5t-19 45.5z"/></symbol><symbol id="icon-chevron-left" viewBox="0 0 1792 1792"><path d="M1427 301l-531 531 531 531q19 19 19 45t-19 45l-166 166q-19 19-45 19t-45-19l-742-742q-19-19-19-45t19-45l742-742q19-19 45-19t45 19l166 166q19 19 19 45t-19 45z"/></symbol><symbol id="icon-chevron-right" viewBox="0 0 1792 1792"><path d="M1363 877l-742 742q-19 19-45 19t-45-19l-166-166q-19-19-19-45t19-45l531-531-531-531q-19-19-19-45t19-45l166-166q19-19 45-19t45 19l742 742q19 19 19 45t-19 45z"/></symbol><symbol id="icon-chevron-up" viewBox="0 0 1792 1792"><path d="M1683 1331l-166 165q-19 19-45 19t-45-19l-531-531-531 531q-19 19-45 19t-45-19l-166-165q-19-19-19-45.5t19-45.5l742-741q19-19 45-19t45 19l742 741q19 19 19 45.5t-19 45.5z"/></symbol><symbol id="icon-circle-o" viewBox="0 0 1792 1792"><path d="M896 352q-148 0-273 73t-198 198-73 273 73 273 198 198 273 73 273-73 198-198 73-273-73-273-198-198-273-73zm768 544q0 209-103 385.5t-279.5 279.5-385.5 103-385.5-103-279.5-279.5-103-385.5 103-385.5 279.5-279.5 385.5-103 385.5 103 279.5 279.5 103 385.5z"/></symbol><symbol id="icon-clock" viewBox="0 0 1792 1792"><path d="M1024 544v448q0 14-9 23t-23 9h-320q-14 0-23-9t-9-23v-64q0-14 9-23t23-9h224v-352q0-14 9-23t23-9h64q14 0 23 9t9 23zm416 352q0-148-73-273t-198-198-273-73-273 73-198 198-73 273 73 273 198 198 273 73 273-73 198-198 73-273zm224 0q0 209-103 385.5t-279.5 279.5-385.5 103-385.5-103-279.5-279.5-103-385.5 103-385.5 279.5-279.5 385.5-103 385.5 103 279.5 279.5 103 385.5z"/></symbol><symbol id="icon-clone" viewBox="0 0 1792 1792"><path d="M1696 384q40 0 68 28t28 68v1216q0 40-28 68t-68 28h-960q-40 0-68-28t-28-68v-288h-544q-40 0-68-28t-28-68v-672q0-40 20-88t48-76l408-408q28-28 76-48t88-20h416q40 0 68 28t28 68v328q68-40 128-40h416zm-544 213l-299 299h299v-299zm-640-384l-299 299h299v-299zm196 647l316-316v-416h-384v416q0 40-28 68t-68 28h-416v640h512v-256q0-40 20-88t48-76zm956 804v-1152h-384v416q0 40-28 68t-68 28h-416v640h896z"/></symbol><symbol id="icon-close" viewBox="0 0 1792 1792"><path d="M1277 1122q0-26-19-45l-181-181 181-181q19-19 19-45 0-27-19-46l-90-90q-19-19-46-19-26 0-45 19l-181 181-181-181q-19-19-45-19-27 0-46 19l-90 90q-19 19-19 46 0 26 19 45l181 181-181 181q-19 19-19 45 0 27 19 46l90 90q19 19 46 19 26 0 45-19l181-181 181 181q19 19 45 19 27 0 46-19l90-90q19-19 19-46zm387-226q0 209-103 385.5t-279.5 279.5-385.5 103-385.5-103-279.5-279.5-103-385.5 103-385.5 279.5-279.5 385.5-103 385.5 103 279.5 279.5 103 385.5z"/></symbol><symbol id="icon-cloud-upload" viewBox="0 0 1792 1314.2"><title>cloud-upload</title><path d="M1194.7,861.9c0-8.7-2.8-15.9-8.4-21.5L857.7,511.9c-5.6-5.6-12.8-8.4-21.5-8.4s-15.9,2.8-21.5,8.4L487.2,839.5c-6.2,7.5-9.3,14.9-9.3,22.4,0,8.7,2.8,15.9,8.4,21.5s12.8,8.4,21.5,8.4H716.9v328.5a30.4,30.4,0,0,0,29.9,29.9H926a30.4,30.4,0,0,0,29.9-29.9V891.7H1165A30,30,0,0,0,1194.7,861.9ZM1792,1130.7q0,148.35-105,253.4t-253.4,105H418.1q-172.65,0-295.4-122.7Q0,1243.55,0,1070.9q0-121.35,65.3-224t175.5-154c-1.2-18.7-1.9-32-1.9-40.1q0-197.85,140-337.9t337.9-140q145.65,0,266.5,81.2t175.9,215.6q66.3-57.9,154.9-57.9,99,0,168.9,70t70,168.9q0,70.95-38.3,128.8Q1636.05,810.45,1714,908T1792,1130.7Z" transform="translate(0 -174.9)"/></symbol><symbol id="icon-code-fork" viewBox="0 0 1792 1792"><path d="M672 1472q0-40-28-68t-68-28-68 28-28 68 28 68 68 28 68-28 28-68zm0-1152q0-40-28-68t-68-28-68 28-28 68 28 68 68 28 68-28 28-68zm640 128q0-40-28-68t-68-28-68 28-28 68 28 68 68 28 68-28 28-68zm96 0q0 52-26 96.5t-70 69.5q-2 287-226 414-68 38-203 81-128 40-169.5 71t-41.5 100v26q44 25 70 69.5t26 96.5q0 80-56 136t-136 56-136-56-56-136q0-52 26-96.5t70-69.5v-820q-44-25-70-69.5t-26-96.5q0-80 56-136t136-56 136 56 56 136q0 52-26 96.5t-70 69.5v497q54-26 154-57 55-17 87.5-29.5t70.5-31 59-39.5 40.5-51 28-69.5 8.5-91.5q-44-25-70-69.5t-26-96.5q0-80 56-136t136-56 136 56 56 136z"/></symbol><symbol id="icon-compliance" viewBox="0 0 1792 1792">
<g id="Compliance">
	<g id="Compliance_x2F_Audit">
		<rect x="541.2" y="1110.9" width="444.6" height="79.4"/>
		<g>
			<g>
				<path d="M263.2,492.8h194v-194h-194V492.8z M263.2,725.6h194v-194h-194V725.6z M263.2,958.3h194v-194h-194V958.3z M301.9,803.2
					h116.4v116.4H301.9V803.2z M263.2,1191.1h194v-194h-194V1191.1z M542.5,298.8v77.6h698.3v-77.6H542.5z M985.8,415.2H542.5v77.6
					h443.3L985.8,415.2L985.8,415.2z M542.5,609.2h698.3v-77.6H542.5C542.5,531.6,542.5,609.2,542.5,609.2z M985.8,648H542.5v77.6
					h443.3L985.8,648L985.8,648z M542.5,842h698.3v-77.6H542.5C542.5,764.4,542.5,842,542.5,842z M542.5,958.3h443.3v-77.6H542.5
					V958.3z"/>
			</g>
		</g>
		<g>
			<path d="M935,1410.5c0-16.5,0.9-32.8,2.7-48.6H182.5V145.7h1125.4v833.4c19.7-3.1,42.3-4.7,64-4.7c18.4,0,34.7,1.1,54.4,3.4
				V106.7c0-43.9-36.7-79.4-80.6-79.4H143c-43.9,0-79,35.6-79,79.4v1294c0,43.9,35.2,79.7,79,79.7h797.6
				C936.9,1456.7,935,1434.3,935,1410.5z"/>
		</g>
		<path d="M1372,1052.7c-196.3,0-356,159.7-356,356s159.7,356,356,356s356-159.7,356-356S1568.3,1052.7,1372,1052.7z M1356.1,1525.3
			l-52.1,52.1l-55.9-55.9l-88.5-88.5l52.1-52.1l88.5,88.5l225.5-225.5l55.9,55.9L1356.1,1525.3z"/>
		<path d="M1233.4,994.7H541.8v79h550.3C1133.4,1038.2,1181.2,1014.5,1233.4,994.7z"/>
	</g>
</g>
<g id="Layer_1_1_">
</g>
</symbol><symbol id="icon-control-portal" viewBox="-259 106 1792 1792">
<g id="Control_Portal">
	<g id="control_portal">
		<g>
			<path d="M1393.4,340.2H-119.4c-41.8,0-75.6,33.9-75.6,75.6v1172.4c0,41.8,33.9,75.6,75.6,75.6h1512.7c41.8,0,75.6-33.9,75.6-75.6
				V415.8C1469,374,1435.1,340.2,1393.4,340.2z M1393.4,1584.4H-119.4V415.8h1512.7V1584.4z M674.8,1176h56.9
				c7.4,0,14.2-4.3,17.2-11.1l9.7-21.4l27.9,59.7c3.4,7.3,11.1,11.7,19.1,10.8c8-0.9,14.6-6.7,16.4-14.6l18.6-81.5l29.6,160.3
				c1.6,8.7,9.1,15.2,18,15.5c8.8,0.4,16.8-5.6,19-14.2l27.1-106.5c3,2,6.7,3.2,10.5,3.2h66.8c7.4,0,14.2-4.3,17.2-11.1l9.7-21.4
				l27.9,59.7c3.4,7.3,11.1,11.7,19.1,10.8c8-0.9,14.6-6.7,16.4-14.6l18.6-81.5l29.6,160.3c1.6,8.7,9.1,15.2,18,15.5
				c0.2,0,0.4,0,0.6,0c8.6,0,16.2-5.8,18.3-14.2l27.1-106.5c3,2,6.7,3.2,10.5,3.2h66.6c10.4,0,18.9-8.5,18.9-18.9
				c0-10.4-8.5-18.9-18.9-18.9h-55.4l-12.4-22.4c-3.7-6.8-11.3-10.6-19-9.6c-7.7,1-14,6.6-15.9,14.1l-16.9,66.3l-30.5-165.6
				c-1.6-8.8-9.2-15.3-18.2-15.5c-8.9-0.1-16.8,5.8-18.8,14.6l-26.8,116.9l-22-47.5c-3.1-6.7-9.8-11.7-17.1-11.7h-0.1
				c-7.4,0-14.1,5.2-17.1,11.9l-21.6,48.6H956l-12.4-22.4c-3.7-6.8-11.3-10.6-19-9.6c-7.7,1-14,6.6-15.9,14.1l-16.9,66.3
				l-30.5-165.6c-1.6-8.8-9.2-15.3-18.2-15.5c-9-0.1-16.8,5.8-18.8,14.6l-26.8,116.9l-22-47.5c-3.1-6.7-9.8-11.7-17.1-11.7h-0.1
				c-7.4,0-14.1,5.2-17.1,11.9l-21.6,48.6h-44.7c-10.4,0-18.9,8.5-18.9,18.9C655.9,1167.5,664.4,1176,674.8,1176z M674.8,820.5h56.9
				c7.4,0,14.2-4.3,17.2-11.1l9.7-21.4l27.9,59.7c3.4,7.3,11.1,11.6,19.1,10.8c8-0.9,14.6-6.7,16.4-14.6l18.6-81.5l29.6,160.3
				c1.6,8.7,9.1,15.2,18,15.5c8.8,0.3,16.8-5.6,19-14.2l27.1-106.5c3,2,6.7,3.2,10.5,3.2h66.8c7.4,0,14.2-4.3,17.2-11.1l9.7-21.4
				l27.9,59.7c3.4,7.3,11.1,11.6,19.1,10.8c8-0.9,14.6-6.7,16.4-14.6l18.6-81.5l29.6,160.3c1.6,8.7,9.1,15.2,18,15.5
				c0.2,0,0.4,0,0.6,0c8.6,0,16.2-5.8,18.3-14.2l27.1-106.5c3,2,6.7,3.2,10.5,3.2h66.6c10.4,0,18.9-8.5,18.9-18.9
				s-8.5-18.9-18.9-18.9h-55.4l-12.4-22.4c-3.7-6.8-11.3-10.6-19-9.6c-7.7,1-14,6.6-15.9,14.1l-16.9,66.3l-30.5-165.6
				c-1.6-8.8-9.2-15.3-18.2-15.5c-8.9-0.1-16.8,5.8-18.8,14.6l-26.8,116.9l-22-47.5c-3.1-6.7-9.8-11.7-17.1-11.7h-0.1
				c-7.4,0-14.1,5.2-17.1,11.9l-21.6,48.6H956l-12.4-22.4c-3.7-6.8-11.3-10.6-19-9.6c-7.7,1-14,6.6-15.9,14.1l-16.9,66.3
				l-30.5-165.6c-1.6-8.8-9.2-15.3-18.2-15.5c-9-0.1-16.8,5.8-18.8,14.6l-26.8,116.9l-22-47.5c-3.1-6.7-9.8-11.7-17.1-11.7h-0.1
				c-7.4,0-14.1,5.2-17.1,11.9l-21.6,48.6h-44.7c-10.4,0-18.9,8.5-18.9,18.9C655.9,812,664.4,820.5,674.8,820.5z M304.2,1512.5
				h1009.7v-151.3H304.2V1512.5z M1359.3,453.6H-77.8v151.3h1437.1V453.6z M451.7,945.3c83.5,0,151.3-67.7,151.3-151.3
				s-67.7-151.3-151.3-151.3S300.4,710.5,300.4,794S368.1,945.3,451.7,945.3z M451.7,718.4c41.7,0,75.6,33.9,75.6,75.6
				s-33.9,75.6-75.6,75.6s-75.6-33.9-75.6-75.6S410,718.4,451.7,718.4z M451.7,1300.8c83.5,0,151.3-67.7,151.3-151.3
				c0-83.5-67.7-151.3-151.3-151.3s-151.3,67.7-151.3,151.3C300.4,1233,368.1,1300.8,451.7,1300.8z M451.7,1073.9
				c41.7,0,75.6,33.9,75.6,75.6c0,41.7-33.9,75.6-75.6,75.6s-75.6-33.9-75.6-75.6C376.1,1107.8,410,1073.9,451.7,1073.9z
				 M224.8,1436.9H-77.8v75.6h302.5V1436.9z M224.8,1210H-77.8v75.6h302.5V1210z M224.8,1323.5H-77.8v75.6h302.5V1323.5z
				 M224.8,1096.5H-77.8v75.6h302.5V1096.5z M224.8,869.6H-77.8v75.6h302.5V869.6z M224.8,983.1H-77.8v75.6h302.5V983.1z
				 M224.8,756.2H-77.8v75.6h302.5V756.2z M224.8,642.7H-77.8v75.6h302.5V642.7z"/>
		</g>
	</g>
</g>
<g id="Layer_1_1_">
</g>
</symbol><symbol id="icon-database" viewBox="-235 201 278 350">
<path d="M43,434.5C42.1,454.7-19.8,471-96,471c-76.8,0-139-16.6-139-37h0v80h0c0,20.4,62.2,37,139,37s139-16.6,139-37
	c0-0.2,0-0.3,0-0.5V434.5z M43,336.5C42.1,356.7-19.8,373-96,373c-76.8,0-139-16.6-139-37h0v80h0c0,20.4,62.2,37,139,37
	s139-16.6,139-37c0-0.2,0-0.3,0-0.5V336.5z M43,238.5c0-0.2,0-0.3,0-0.5c0-20.4-62.2-37-139-37s-139,16.6-139,37h0v80h0
	c0,20.4,62.2,37,139,37s139-16.6,139-37c0-0.2,0-0.3,0-0.5V238.5z"/>
</symbol><symbol id="icon-disaster-recovery" viewBox="-259 61 1792 1792">
<g id="Disaster_Recovery">
	<path id="Disaster_Recovery_1_" d="M637,125c-459.5,0-832,372.5-832,832s372.5,832,832,832c459.5,0,832-372.5,832-832
		S1096.5,125,637,125z M1351.5,957c0,110.7-25,217.5-72.4,314L985,1094c16.7-42.4,25.9-88.7,25.9-137c0-47.8-9-93.5-25.3-135.5
		l294.3-177.1C1326.8,740.6,1351.5,846.9,1351.5,957z M-3.8,1273.8C-52,1176.5-77.5,1068.7-77.5,957c0-111.2,25.3-218.4,73-315.3
		l294.1,177c-17.1,42.8-26.4,89.5-26.4,138.4c0,49.5,9.6,96.7,27.1,139.9L-3.8,1273.8z M380.5,957c0-141.4,115-256.5,256.5-256.5
		s256.5,115,256.5,256.5s-115,256.5-256.5,256.5S380.5,1098.4,380.5,957z M944.1,311.4L766.7,606.2c-40.4-14.9-84.1-23.1-129.7-23.1
		c-43.8,0-85.8,7.6-124.8,21.4L334.5,309.3c93.5-43.7,196.2-66.8,302.5-66.8C745,242.5,849.4,266.3,944.1,311.4z M335.4,1605.2
		l177.7-295.3c38.8,13.6,80.5,21,123.9,21c45.2,0,88.6-8,128.8-22.8L943.2,1603c-94.5,44.9-198.5,68.5-306.2,68.5
		C531.1,1671.5,428.7,1648.6,335.4,1605.2z"/>
</g>
<g id="Layer_1_1_">
</g>
</symbol><symbol id="icon-dot-circle-o" viewBox="0 0 1792 1792"><path d="M1152 896q0 106-75 181t-181 75-181-75-75-181 75-181 181-75 181 75 75 181zm-256-544q-148 0-273 73t-198 198-73 273 73 273 198 198 273 73 273-73 198-198 73-273-73-273-198-198-273-73zm768 544q0 209-103 385.5t-279.5 279.5-385.5 103-385.5-103-279.5-279.5-103-385.5 103-385.5 279.5-279.5 385.5-103 385.5 103 279.5 279.5 103 385.5z"/></symbol><symbol id="icon-download" viewBox="0 0 1792 1792"><path d="M1344 1344q0-26-19-45t-45-19-45 19-19 45 19 45 45 19 45-19 19-45zm256 0q0-26-19-45t-45-19-45 19-19 45 19 45 45 19 45-19 19-45zm128-224v320q0 40-28 68t-68 28h-1472q-40 0-68-28t-28-68v-320q0-40 28-68t68-28h465l135 136q58 56 136 56t136-56l136-136h464q40 0 68 28t28 68zm-325-569q17 41-14 70l-448 448q-18 19-45 19t-45-19l-448-448q-31-29-14-70 17-39 59-39h256v-448q0-26 19-45t45-19h256q26 0 45 19t19 45v448h256q42 0 59 39z"/></symbol><symbol id="icon-ellipsis" viewBox="0 0 1792 1792"><path d="M576 736v192q0 40-28 68t-68 28h-192q-40 0-68-28t-28-68v-192q0-40 28-68t68-28h192q40 0 68 28t28 68zm512 0v192q0 40-28 68t-68 28h-192q-40 0-68-28t-28-68v-192q0-40 28-68t68-28h192q40 0 68 28t28 68zm512 0v192q0 40-28 68t-68 28h-192q-40 0-68-28t-28-68v-192q0-40 28-68t68-28h192q40 0 68 28t28 68z"/></symbol><symbol id="icon-exclamation-circle" viewBox="0 0 1792 1792"><path d="M896 128q209 0 385.5 103t279.5 279.5 103 385.5-103 385.5-279.5 279.5-385.5 103-385.5-103-279.5-279.5-103-385.5 103-385.5 279.5-279.5 385.5-103zm128 1247v-190q0-14-9-23.5t-22-9.5h-192q-13 0-23 10t-10 23v190q0 13 10 23t23 10h192q13 0 22-9.5t9-23.5zm-2-344l18-621q0-12-10-18-10-8-24-8h-220q-14 0-24 8-10 6-10 18l17 621q0 10 10 17.5t24 7.5h185q14 0 23.5-7.5t10.5-17.5z"/></symbol><symbol id="icon-exclamation-triangle" viewBox="0 0 1792 1792"><path d="M1024 1375v-190q0-14-9.5-23.5t-22.5-9.5h-192q-13 0-22.5 9.5t-9.5 23.5v190q0 14 9.5 23.5t22.5 9.5h192q13 0 22.5-9.5t9.5-23.5zm-2-374l18-459q0-12-10-19-13-11-24-11h-220q-11 0-24 11-10 7-10 21l17 457q0 10 10 16.5t24 6.5h185q14 0 23.5-6.5t10.5-16.5zm-14-934l768 1408q35 63-2 126-17 29-46.5 46t-63.5 17h-1536q-34 0-63.5-17t-46.5-46q-37-63-2-126l768-1408q17-31 47-49t65-18 65 18 47 49z"/></symbol><symbol id="icon-facebook" viewBox="0 0 1792 1792"><path d="M1579 128q35 0 60 25t25 60v1366q0 35-25 60t-60 25h-391v-595h199l30-232h-229v-148q0-56 23.5-84t91.5-28l122-1v-207q-63-9-178-9-136 0-217.5 80t-81.5 226v171h-200v232h200v595h-735q-35 0-60-25t-25-60v-1366q0-35 25-60t60-25h1366z"/></symbol><symbol id="icon-failover" viewBox="0 0 1536 1536"><title>failover</title><path d="M1344,1024q-126,0-218,86L766,930q2-22,2-34t-2-34l360-180q92,86,218,86,133,0,226.5-93.5T1664,448q0-133-93.5-226.5T1344,128q-133,0-226.5,93.5T1024,448q0,12,2,34L666,662q-92-86-218-86-133,0-226.5,93.5T128,896q0,133,93.5,226.5T448,1216q126,0,218-86l360,180q-2,22-2,34,0,133,93.5,226.5T1344,1664q133,0,226.5-93.5T1664,1344q0-133-93.5-226.5T1344,1024Zm0.29-756a179.71,179.71,0,1,1-179.71,179.71A179.71,179.71,0,0,1,1344.29,268Z" transform="translate(-128 -128)"/></symbol><symbol id="icon-file" viewBox="0 0 1792 1792"><path d="M1152 512v-472q22 14 36 28l408 408q14 14 28 36h-472zm-128 32q0 40 28 68t68 28h544v1056q0 40-28 68t-68 28h-1344q-40 0-68-28t-28-68v-1600q0-40 28-68t68-28h800v544z"/></symbol><symbol id="icon-firewall" viewBox="-289 146 1792 1792">
<g id="Firewall">
	<g id="firewall">
		<rect x="345.3" y="1370.1" width="525" height="262.5"/>
		<rect x="-223.4" y="1370.1" width="525" height="262.5"/>
		<rect x="914" y="1370.1" width="525" height="262.5"/>
		<rect x="61" y="1063.9" width="525" height="262.5"/>
		<rect x="-225" y="1063.9" width="242.2" height="262.5"/>
		<rect x="629.7" y="1063.9" width="525" height="262.5"/>
		<rect x="1198.4" y="1063.9" width="240.2" height="262.5"/>
		<rect x="345.3" y="757.6" width="525" height="262.5"/>
		<rect x="-223.4" y="757.6" width="525" height="262.5"/>
		<rect x="914" y="757.6" width="525" height="262.5"/>
		<rect x="61" y="451.4" width="525" height="262.5"/>
		<rect x="-225" y="451.4" width="242.2" height="262.5"/>
		<rect x="629.7" y="451.4" width="525" height="262.5"/>
		<rect x="1198.4" y="451.4" width="240.2" height="262.5"/>
	</g>
</g>
<g id="Layer_1_1_">
</g>
</symbol><symbol id="icon-flexibility" viewBox="-259 99 1792 1792">
<g id="Flexibility">
	<g id="Flexibility_1_">
		<path d="M169.2,929.2v-77.4c0-10.5-5.8-20.3-14.9-25.6c-4.6-2.6-9.7-4-14.8-4c-5.1,0-10.2,1.3-14.8,4l-240.9,139.1
			c-9.1,5.3-14.8,15-14.8,25.6c0,10.5,5.6,20.3,14.8,25.6l240.9,139.1c9.1,5.3,20.5,5.3,29.7,0c9.1-5.3,14.9-15,14.9-25.6v-78.3
			c160.6,17.2,277.4,100.6,346.7,248.3c61.2,130.5,62.6,265.7,62.6,268.5c0,33.5,27.1,62,60.7,62c0,0,0,0,0,0
			c33.6,0,60.8-28.5,60.8-62c0-6.5-0.6-161.4-72.2-316.7C564.3,1114,434.5,951.9,169.2,929.2z"/>
		<path d="M499.8,660h77.8v415.8c20.9,26.3,43.4,55.1,62,86.1c18.2-30.2,39.2-58.2,60.1-83.9V660H778c10.5,0,20.3-5.9,25.6-15
			c2.6-4.6,4-9.8,4-14.9c0-5.1-1.3-10.3-4-14.8L664.5,374.3c-5.3-9.1-15-14.8-25.6-14.8s-20.3,5.6-25.6,14.7L474.2,615.1
			c-5.3,9.1-5.3,20.7,0,29.8C479.5,654.1,489.3,660,499.8,660z"/>
		<path d="M1390.2,965.2l-240.9-139.1c-9.1-5.3-20.5-5.3-29.7,0c-9.1,5.3-14.9,15-14.9,25.6v78c-237.4,22.3-367.4,158.8-435.9,286.5
			c2.2,4.5,4.3,9,6.4,13.5c25.4,55,42.3,110,53.8,159.3c8.2-27.9,18.8-57.2,32.3-86.4c68.3-148.2,182.9-232.3,343.4-250.7v78
			c0,10.5,5.8,20.3,14.9,25.6c4.6,2.6,9.7,4,14.8,4s10.2-1.3,14.8-4l240.9-139.1c9.1-5.3,14.8-15,14.8-25.6
			C1405,980.3,1399.4,970.5,1390.2,965.2z"/>
	</g>
</g>
<g id="Layer_1_1_">
</g>
</symbol><symbol id="icon-folder-open" viewBox="0 0 1792 1792"><path d="M1815 952q0 31-31 66l-336 396q-43 51-120.5 86.5t-143.5 35.5h-1088q-34 0-60.5-13t-26.5-43q0-31 31-66l336-396q43-51 120.5-86.5t143.5-35.5h1088q34 0 60.5 13t26.5 43zm-343-344v160h-832q-94 0-197 47.5t-164 119.5l-337 396-5 6q0-4-.5-12.5t-.5-12.5v-960q0-92 66-158t158-66h320q92 0 158 66t66 158v32h544q92 0 158 66t66 158z"/></symbol><symbol id="icon-folder" viewBox="0 0 1792 1792"><path d="M1728 608v704q0 92-66 158t-158 66h-1216q-92 0-158-66t-66-158v-960q0-92 66-158t158-66h320q92 0 158 66t66 158v32h672q92 0 158 66t66 158z"/></symbol><symbol id="icon-git" viewBox="-389 190.7 1792 1792">
<path d="M1246.3,1018.4L575.7,347.9c-38.4-38.4-101.5-38.4-139.9,0L296.8,486.9l176.6,176.6c41-13.7,87.9-4.3,121.1,28.2
	c33.3,33.3,41.8,80.2,28.2,122l170.6,170.6c41-14.5,88.7-5.1,122,28.2c46.1,46.1,46.1,120.3,0,166.4c-46.1,46.1-120.3,46.1-166.4,0
	c-35-35-43.5-85.3-25.6-128L562.9,891.3v418c11.1,6,22.2,12.8,30.7,22.2c46.1,46.1,46.1,120.3,0,166.4s-120.3,46.1-166.4,0
	s-46.1-120.3,0-166.4c11.1-11.1,24.7-19.6,38.4-25.6V883.6c-13.7-6-27.3-14.5-38.4-25.6c-35-35-43.5-86.2-25.6-128.8l-174-174
	L-232.2,1015c-38.4,38.4-38.4,101.5,0,139.9l670.6,670.6c38.4,38.4,101.5,38.4,139.9,0l667.2-667.2
	C1284.7,1119.1,1284.7,1056.8,1246.3,1018.4"/>
</symbol><symbol id="icon-github" viewBox="0 0 1792 1792"><path d="M1664 896q0 251-146.5 451.5t-378.5 277.5q-27 5-39.5-7t-12.5-30v-211q0-97-52-142 57-6 102.5-18t94-39 81-66.5 53-105 20.5-150.5q0-121-79-206 37-91-8-204-28-9-81 11t-92 44l-38 24q-93-26-192-26t-192 26q-16-11-42.5-27t-83.5-38.5-86-13.5q-44 113-7 204-79 85-79 206 0 85 20.5 150t52.5 105 80.5 67 94 39 102.5 18q-40 36-49 103-21 10-45 15t-57 5-65.5-21.5-55.5-62.5q-19-32-48.5-52t-49.5-24l-20-3q-21 0-29 4.5t-5 11.5 9 14 13 12l7 5q22 10 43.5 38t31.5 51l10 23q13 38 44 61.5t67 30 69.5 7 55.5-3.5l23-4q0 38 .5 89t.5 54q0 18-13 30t-40 7q-232-77-378.5-277.5t-146.5-451.5q0-209 103-385.5t279.5-279.5 385.5-103 385.5 103 279.5 279.5 103 385.5z"/></symbol><symbol id="icon-global-network" viewBox="-260 61.5 1792 1792">
<g id="Global_x5F_Network">
	<path id="Global_x5F_Network_1_" d="M1179.1,414.5C1034,269.4,841.1,189.5,636,189.5S238,269.4,92.9,414.5S-132,752.4-132,957.5
		s79.9,398,224.9,543.1C238,1645.6,430.9,1725.5,636,1725.5s398-79.9,543.1-224.9c145.1-145.1,224.9-337.9,224.9-543.1
		S1324.1,559.5,1179.1,414.5z M-50,1003.9h235.2c3.2,98.1,17.1,192.7,40.7,280.2H30.1C-15.3,1196.6-43.5,1102-50,1003.9z
		 M670.2,555.5V273.3c84.1,14.7,159.6,81.8,221.1,190.6c16,28.2,30.8,56.6,43.6,91.6C934.9,555.5,670.2,555.5,670.2,555.5z
		 M962.7,636.1c25.9,87.6,40.9,185.7,43.8,287.3H670.2V636.1C670.2,636.1,962.7,636.1,962.7,636.1z M589.6,275.4v280.1H337.1
		c12.8-35,26.8-63.4,42.7-91.6C438.7,359.7,512.6,293.7,589.6,275.4z M589.6,636.1v287.3H265.6c2.9-101.6,17.9-199.7,43.8-287.3
		C309.3,636.1,589.6,636.1,589.6,636.1z M185,923.3H-50.5c5.4-105.1,33.8-203.2,80.1-287.3h196C201.6,723.6,187.7,821.7,185,923.3z
		 M265.8,1003.9h323.8v280.2H309.6C284.2,1196.6,269.3,1102,265.8,1003.9z M589.6,1364.7v274.9c-77.1-18.3-150.9-82.1-209.8-186.3
		c-15.8-28-29.7-57.1-42.4-88.7L589.6,1364.7L589.6,1364.7z M670.2,1641.8v-277.1h264.3c-12.7,31.5-27.5,60.6-43.3,88.7
		C829.8,1562.2,754.3,1627.1,670.2,1641.8z M670.2,1284.1v-280.2h335.9c-3.4,98.1-18.4,192.7-43.7,280.2H670.2z M1086.8,1003.9H1322
		c-6.4,98.1-34.7,192.7-80.1,280.2h-195.8C1069.7,1196.6,1083.6,1102,1086.8,1003.9z M1087,923.3c-2.7-101.6-16.6-199.7-40.7-287.3
		h196c46.3,84.1,74.7,182.2,80.1,287.3H1087z M1191.7,555.5H1021c-16.8-49-36.5-91.2-59.2-131.3c-22.6-39.9-47.3-74.5-73.7-104.6
		C1010.3,367.9,1115.3,450.4,1191.7,555.5z M383.9,319.1c-26.5,30.1-51.2,65.8-73.7,105.7c-22.6,40-42.4,81.7-59.2,130.7H80.3
		C156.7,450.4,261.7,367.4,383.9,319.1z M80.9,1364.7h170.4c16.7,45.5,36.4,88.5,58.9,128.3c22.6,39.9,47.3,75.6,73.7,105.7
		C262,1550.5,157.2,1466.3,80.9,1364.7z M888.1,1598.2c26.5-30.1,51.2-64.7,73.7-104.6c22.5-39.8,42.2-83.3,58.9-128.8h170.3
		C1114.8,1466.3,1010,1550,888.1,1598.2z"/>
</g>
<g id="Layer_1_1_">
</g>
</symbol><symbol id="icon-globe" viewBox="0 0 1792 1792"><path d="M896 128q209 0 385.5 103t279.5 279.5 103 385.5-103 385.5-279.5 279.5-385.5 103-385.5-103-279.5-279.5-103-385.5 103-385.5 279.5-279.5 385.5-103zm274 521q-2 1-9.5 9.5t-13.5 9.5q2 0 4.5-5t5-11 3.5-7q6-7 22-15 14-6 52-12 34-8 51 11-2-2 9.5-13t14.5-12q3-2 15-4.5t15-7.5l2-22q-12 1-17.5-7t-6.5-21q0 2-6 8 0-7-4.5-8t-11.5 1-9 1q-10-3-15-7.5t-8-16.5-4-15q-2-5-9.5-10.5t-9.5-10.5q-1-2-2.5-5.5t-3-6.5-4-5.5-5.5-2.5-7 5-7.5 10-4.5 5q-3-2-6-1.5t-4.5 1-4.5 3-5 3.5q-3 2-8.5 3t-8.5 2q15-5-1-11-10-4-16-3 9-4 7.5-12t-8.5-14h5q-1-4-8.5-8.5t-17.5-8.5-13-6q-8-5-34-9.5t-33-.5q-5 6-4.5 10.5t4 14 3.5 12.5q1 6-5.5 13t-6.5 12q0 7 14 15.5t10 21.5q-3 8-16 16t-16 12q-5 8-1.5 18.5t10.5 16.5q2 2 1.5 4t-3.5 4.5-5.5 4-6.5 3.5l-3 2q-11 5-20.5-6t-13.5-26q-7-25-16-30-23-8-29 1-5-13-41-26-25-9-58-4 6-1 0-15-7-15-19-12 3-6 4-17.5t1-13.5q3-13 12-23 1-1 7-8.5t9.5-13.5.5-6q35 4 50-11 5-5 11.5-17t10.5-17q9-6 14-5.5t14.5 5.5 14.5 5q14 1 15.5-11t-7.5-20q12 1 3-17-5-7-8-9-12-4-27 5-8 4 2 8-1-1-9.5 10.5t-16.5 17.5-16-5q-1-1-5.5-13.5t-9.5-13.5q-8 0-16 15 3-8-11-15t-24-8q19-12-8-27-7-4-20.5-5t-19.5 4q-5 7-5.5 11.5t5 8 10.5 5.5 11.5 4 8.5 3q14 10 8 14-2 1-8.5 3.5t-11.5 4.5-6 4q-3 4 0 14t-2 14q-5-5-9-17.5t-7-16.5q7 9-25 6l-10-1q-4 0-16 2t-20.5 1-13.5-8q-4-8 0-20 1-4 4-2-4-3-11-9.5t-10-8.5q-46 15-94 41 6 1 12-1 5-2 13-6.5t10-5.5q34-14 42-7l5-5q14 16 20 25-7-4-30-1-20 6-22 12 7 12 5 18-4-3-11.5-10t-14.5-11-15-5q-16 0-22 1-146 80-235 222 7 7 12 8 4 1 5 9t2.5 11 11.5-3q9 8 3 19 1-1 44 27 19 17 21 21 3 11-10 18-1-2-9-9t-9-4q-3 5 .5 18.5t10.5 12.5q-7 0-9.5 16t-2.5 35.5-1 23.5l2 1q-3 12 5.5 34.5t21.5 19.5q-13 3 20 43 6 8 8 9 3 2 12 7.5t15 10 10 10.5q4 5 10 22.5t14 23.5q-2 6 9.5 20t10.5 23q-1 0-2.5 1t-2.5 1q3 7 15.5 14t15.5 13q1 3 2 10t3 11 8 2q2-20-24-62-15-25-17-29-3-5-5.5-15.5t-4.5-14.5q2 0 6 1.5t8.5 3.5 7.5 4 2 3q-3 7 2 17.5t12 18.5 17 19 12 13q6 6 14 19.5t0 13.5q9 0 20 10t17 20q5 8 8 26t5 24q2 7 8.5 13.5t12.5 9.5l16 8 13 7q5 2 18.5 10.5t21.5 11.5q10 4 16 4t14.5-2.5 13.5-3.5q15-2 29 15t21 21q36 19 55 11-2 1 .5 7.5t8 15.5 9 14.5 5.5 8.5q5 6 18 15t18 15q6-4 7-9-3 8 7 20t18 10q14-3 14-32-31 15-49-18 0-1-2.5-5.5t-4-8.5-2.5-8.5 0-7.5 5-3q9 0 10-3.5t-2-12.5-4-13q-1-8-11-20t-12-15q-5 9-16 8t-16-9q0 1-1.5 5.5t-1.5 6.5q-13 0-15-1 1-3 2.5-17.5t3.5-22.5q1-4 5.5-12t7.5-14.5 4-12.5-4.5-9.5-17.5-2.5q-19 1-26 20-1 3-3 10.5t-5 11.5-9 7q-7 3-24 2t-24-5q-13-8-22.5-29t-9.5-37q0-10 2.5-26.5t3-25-5.5-24.5q3-2 9-9.5t10-10.5q2-1 4.5-1.5t4.5 0 4-1.5 3-6q-1-1-4-3-3-3-4-3 7 3 28.5-1.5t27.5 1.5q15 11 22-2 0-1-2.5-9.5t-.5-13.5q5 27 29 9 3 3 15.5 5t17.5 5q3 2 7 5.5t5.5 4.5 5-.5 8.5-6.5q10 14 12 24 11 40 19 44 7 3 11 2t4.5-9.5 0-14-1.5-12.5l-1-8v-18l-1-8q-15-3-18.5-12t1.5-18.5 15-18.5q1-1 8-3.5t15.5-6.5 12.5-8q21-19 15-35 7 0 11-9-1 0-5-3t-7.5-5-4.5-2q9-5 2-16 5-3 7.5-11t7.5-10q9 12 21 2 7-8 1-16 5-7 20.5-10.5t18.5-9.5q7 2 8-2t1-12 3-12q4-5 15-9t13-5l17-11q3-4 0-4 18 2 31-11 10-11-6-20 3-6-3-9.5t-15-5.5q3-1 11.5-.5t10.5-1.5q15-10-7-16-17-5-43 12zm-163 877q206-36 351-189-3-3-12.5-4.5t-12.5-3.5q-18-7-24-8 1-7-2.5-13t-8-9-12.5-8-11-7q-2-2-7-6t-7-5.5-7.5-4.5-8.5-2-10 1l-3 1q-3 1-5.5 2.5t-5.5 3-4 3 0 2.5q-21-17-36-22-5-1-11-5.5t-10.5-7-10-1.5-11.5 7q-5 5-6 15t-2 13q-7-5 0-17.5t2-18.5q-3-6-10.5-4.5t-12 4.5-11.5 8.5-9 6.5-8.5 5.5-8.5 7.5q-3 4-6 12t-5 11q-2-4-11.5-6.5t-9.5-5.5q2 10 4 35t5 38q7 31-12 48-27 25-29 40-4 22 12 26 0 7-8 20.5t-7 21.5q0 6 2 16z"/></symbol><symbol id="icon-heart" viewBox="416 -616 1792 1792">
<path d="M1312,1048c-17.3,0-32-6-44-18L644,428c-6.7-5.3-15.8-14-27.5-26s-30.2-33.8-55.5-65.5s-48-64.2-68-97.5
	s-37.8-73.7-53.5-121S416,24.7,416-20c0-146.7,42.3-261.3,127-344s201.7-124,351-124c41.3,0,83.5,7.2,126.5,21.5s83,33.7,120,58
	s68.8,47.2,95.5,68.5c26.7,21.3,52,44,76,68c24-24,49.3-46.7,76-68c26.7-21.3,58.5-44.2,95.5-68.5s77-43.7,120-58
	S1688.7-488,1730-488c149.3,0,266.3,41.3,351,124c84.7,82.7,127,197.3,127,344c0,147.3-76.3,297.3-229,450l-623,600
	C1344,1042,1329.3,1048,1312,1048z"/>
</symbol><symbol id="icon-hyperscale" viewBox="0 0 1792 1792">
<path d="M546.9,228.8L546.9,228.8 M1526.5,1352.4L1526.5,1352.4 M1245.1,228.8v3.3v890.2c0,100.4,147.3,177.8,281.5,230.2
	c86.2-124.4,137.5-276,137.5-439.6C1664,614.1,1493.8,355.3,1245.1,228.8z M546.9,1122.2V228.4C298.2,355.5,128,614.1,128,912.8
	c0,163.6,51,315.1,138.1,439.6C400.1,1300.1,546.9,1223.5,546.9,1122.2z M1359.6,1524.8c-130.5-88.4-254.2-204.4-254.2-402.5V173.1
	c-45-12.2-91.6-20.7-139.6-25.1v1113.8c0,92.7,82.8,247.6,165.5,382.2C1214.7,1617.3,1292,1577.1,1359.6,1524.8z M826.2,147.9
	c-48,4.5-94.6,13-139.6,25.7v948.6c0,198.2-123.7,314.2-254.7,402.6c68.3,51.8,145.5,92.5,228.9,119.3
	c82.7-134.4,165.4-289.3,165.4-382.3V147.9z M686.5,173.6L686.5,173.6"/>
</symbol><symbol id="icon-info-circle" viewBox="0 0 1792 1792"><path d="M1152 1376v-160q0-14-9-23t-23-9h-96v-512q0-14-9-23t-23-9h-320q-14 0-23 9t-9 23v160q0 14 9 23t23 9h96v320h-96q-14 0-23 9t-9 23v160q0 14 9 23t23 9h448q14 0 23-9t9-23zm-128-896v-160q0-14-9-23t-23-9h-192q-14 0-23 9t-9 23v160q0 14 9 23t23 9h192q14 0 23-9t9-23zm640 416q0 209-103 385.5t-279.5 279.5-385.5 103-385.5-103-279.5-279.5-103-385.5 103-385.5 279.5-279.5 385.5-103 385.5 103 279.5 279.5 103 385.5z"/></symbol><symbol id="icon-info" viewBox="0 0 1792 1792"><path d="M1216 1344v128q0 26-19 45t-45 19h-512q-26 0-45-19t-19-45v-128q0-26 19-45t45-19h64v-384h-64q-26 0-45-19t-19-45v-128q0-26 19-45t45-19h384q26 0 45 19t19 45v576h64q26 0 45 19t19 45zm-128-1152v192q0 26-19 45t-45 19h-256q-26 0-45-19t-19-45v-192q0-26 19-45t45-19h256q26 0 45 19t19 45z"/></symbol><symbol id="icon-infrastructure" viewBox="0 0 1792 1792">
<path d="M960,1088v78h256v-78H960z M576,832v78h256v-78H576z M320,480v832c0,104,56,160,160,160h832c104,0,160-56,160-160V480
	c0-104-56-160-160-160H480C376,320,320,376,320,480z M576,576v78h512v-78H576z M320,573H138c-41,0-74,3-74,44c0,38,33,38,74,38h182
	V573z M320,1085H138c-41,0-74,3-74,44s33,38,74,38h182V1085z M320,829H138c-41,0-74,3-74,44c0,38,33,38,74,38h182V829z M1654,576
	h-182v82h182c41,0,74,0,74-41S1695,576,1654,576z M1654,1088h-182v82h182c41,0,74-3,74-41C1728,1088,1695,1088,1654,1088z M1654,832
	h-182v82h182c41,0,74-3,74-41C1728,832,1695,832,1654,832z M576,1472v182c0,41-5,74,36,74s36-33,36-74v-182H576z M1088,1472v182
	c0,41-5,74,36,74s36-33,36-74v-182H1088z M832,1472v182c0,41-5,74,36,74s36-33,36-74v-182H832z M576,138v182h72V138c0-41,5-74-36-74
	S576,97,576,138z M1088,138v182h72V138c0-41,5-74-36-74S1088,97,1088,138z M832,138v182h72V138c0-41,5-74-36-74S832,97,832,138z
	 M579,448l634,3c75,0,131,56,131,131v634c0,75-56,131-131,131l-634-3c-75,0-131-56-131-131V579C448,504,504,448,579,448z"/>
</symbol><symbol id="icon-lightbulb" viewBox="0 0 1792 1792"><path d="M1120 576q0 13-9.5 22.5t-22.5 9.5-22.5-9.5-9.5-22.5q0-46-54-71t-106-25q-13 0-22.5-9.5t-9.5-22.5 9.5-22.5 22.5-9.5q50 0 99.5 16t87 54 37.5 90zm160 0q0-72-34.5-134t-90-101.5-123-62-136.5-22.5-136.5 22.5-123 62-90 101.5-34.5 134q0 101 68 180 10 11 30.5 33t30.5 33q128 153 141 298h228q13-145 141-298 10-11 30.5-33t30.5-33q68-79 68-180zm128 0q0 155-103 268-45 49-74.5 87t-59.5 95.5-34 107.5q47 28 47 82 0 37-25 64 25 27 25 64 0 52-45 81 13 23 13 47 0 46-31.5 71t-77.5 25q-20 44-60 70t-87 26-87-26-60-70q-46 0-77.5-25t-31.5-71q0-24 13-47-45-29-45-81 0-37 25-64-25-27-25-64 0-54 47-82-4-50-34-107.5t-59.5-95.5-74.5-87q-103-113-103-268 0-99 44.5-184.5t117-142 164-89 186.5-32.5 186.5 32.5 164 89 117 142 44.5 184.5z"/></symbol><symbol id="icon-list" viewBox="0 0 1792 1792"><path d="M256 1312v192q0 13-9.5 22.5t-22.5 9.5h-192q-13 0-22.5-9.5t-9.5-22.5v-192q0-13 9.5-22.5t22.5-9.5h192q13 0 22.5 9.5t9.5 22.5zm0-384v192q0 13-9.5 22.5t-22.5 9.5h-192q-13 0-22.5-9.5t-9.5-22.5v-192q0-13 9.5-22.5t22.5-9.5h192q13 0 22.5 9.5t9.5 22.5zm0-384v192q0 13-9.5 22.5t-22.5 9.5h-192q-13 0-22.5-9.5t-9.5-22.5v-192q0-13 9.5-22.5t22.5-9.5h192q13 0 22.5 9.5t9.5 22.5zm1536 768v192q0 13-9.5 22.5t-22.5 9.5h-1344q-13 0-22.5-9.5t-9.5-22.5v-192q0-13 9.5-22.5t22.5-9.5h1344q13 0 22.5 9.5t9.5 22.5zm-1536-1152v192q0 13-9.5 22.5t-22.5 9.5h-192q-13 0-22.5-9.5t-9.5-22.5v-192q0-13 9.5-22.5t22.5-9.5h192q13 0 22.5 9.5t9.5 22.5zm1536 768v192q0 13-9.5 22.5t-22.5 9.5h-1344q-13 0-22.5-9.5t-9.5-22.5v-192q0-13 9.5-22.5t22.5-9.5h1344q13 0 22.5 9.5t9.5 22.5zm0-384v192q0 13-9.5 22.5t-22.5 9.5h-1344q-13 0-22.5-9.5t-9.5-22.5v-192q0-13 9.5-22.5t22.5-9.5h1344q13 0 22.5 9.5t9.5 22.5zm0-384v192q0 13-9.5 22.5t-22.5 9.5h-1344q-13 0-22.5-9.5t-9.5-22.5v-192q0-13 9.5-22.5t22.5-9.5h1344q13 0 22.5 9.5t9.5 22.5z"/></symbol><symbol id="icon-load-balancer-dedicated" viewBox="0 0 1792 1792">
<path d="M407.3,1384.7c-38.5,0-69.8,31.3-69.8,69.8s31.3,69.8,69.8,69.8c38.5,0,69.8-31.3,69.8-69.8S445.8,1384.7,407.3,1384.7z
	 M1644,1245.1H148c-11,0-20,9-20,20V1644c0,11,9,20,20,20h1496c11,0,20-9,20-20v-378.9C1664,1254,1655,1245.1,1644,1245.1z
	 M407.3,1594.2c-77.1,0-139.6-62.5-139.6-139.6s62.5-139.6,139.6-139.6s139.6,62.5,139.6,139.6S484.4,1594.2,407.3,1594.2z
	 M758.1,1526.1c-38.6,0-69.8-31.3-69.8-69.8s31.3-69.8,69.8-69.8s69.8,31.3,69.8,69.8S796.7,1526.1,758.1,1526.1z M932.7,1526.1
	c-38.6,0-69.8-31.3-69.8-69.8s31.3-69.8,69.8-69.8s69.8,31.3,69.8,69.8S971.2,1526.1,932.7,1526.1z M1107.2,1526.1
	c-38.6,0-69.8-31.3-69.8-69.8s31.3-69.8,69.8-69.8c38.6,0,69.8,31.3,69.8,69.8S1145.8,1526.1,1107.2,1526.1z M1281.7,1526.1
	c-38.6,0-69.8-31.3-69.8-69.8s31.3-69.8,69.8-69.8c38.6,0,69.8,31.3,69.8,69.8S1320.3,1526.1,1281.7,1526.1z M1456.3,1526.1
	c-38.6,0-69.8-31.3-69.8-69.8s31.3-69.8,69.8-69.8s69.8,31.3,69.8,69.8S1494.9,1526.1,1456.3,1526.1z M697,694.6l312.1,262.6
	L976.9,995l161.8,7l-35.1-158.3l-31.8,38.4L817.1,669H1043v48.2l97-97V746h248V498h-248v118.6l-97-97V596H801.5l270.3-227.9
	l31.8,37.2l35-158.6l-162,6.8l32.6,37.8L697,553.9V421H400v398h297V694.6z M1388,128h-248v248h248V128z M1140,1116h248V868h-248
	V1116z"/>
</symbol><symbol id="icon-load-balancer-shared" viewBox="0 0 1792 1792">
<path d="M1278,128v386h386V128H1278z M1278,890.5V1089h386V703h-386V890.5z M1278,1664h386v-386h-386V1664z M1124,857H751.8
	L1172,502l49.4,57.6l54.4-246.8l-251.9,10.5l50.5,58.7L589,790.1V584H128v619h461v-194.1l485.4,408.3l-50,58.8l251.7,10.8
	l-54.6-246.2l-49.5,58.2L776,966h348v78.1l153.6-153.6L1124,736.9V857z"/>
</symbol><symbol id="icon-lock" viewBox="0 0 1792 1792"><path d="M640 768h512v-192q0-106-75-181t-181-75-181 75-75 181v192zm832 96v576q0 40-28 68t-68 28h-960q-40 0-68-28t-28-68v-576q0-40 28-68t68-28h32v-192q0-184 132-316t316-132 316 132 132 316v192h32q40 0 68 28t28 68z"/></symbol><symbol id="icon-maintenance" viewBox="0 0 1792 1792"><path d="M1280 1120v-192q0-14-9-23t-23-9h-224v-224q0-14-9-23t-23-9h-192q-14 0-23 9t-9 23v224h-224q-14 0-23 9t-9 23v192q0 14 9 23t23 9h224v224q0 14 9 23t23 9h192q14 0 23-9t9-23v-224h224q14 0 23-9t9-23zm-640-736h512v-128h-512v128zm-384 0v1280h-32q-92 0-158-66t-66-158v-832q0-92 66-158t158-66h32zm1184 0v1280h-1088v-1280h160v-160q0-40 28-68t68-28h576q40 0 68 28t28 68v160h160zm352 224v832q0 92-66 158t-158 66h-32v-1280h32q92 0 158 66t66 158z"/></symbol><symbol id="icon-messaging" viewBox="0 0 1792 1792"><path d="M1408 768q0 139-94 257t-256.5 186.5-353.5 68.5q-86 0-176-16-124 88-278 128-36 9-86 16h-3q-11 0-20.5-8t-11.5-21q-1-3-1-6.5t.5-6.5 2-6l2.5-5 3.5-5.5 4-5 4.5-5 4-4.5q5-6 23-25t26-29.5 22.5-29 25-38.5 20.5-44q-124-72-195-177t-71-224q0-139 94-257t256.5-186.5 353.5-68.5 353.5 68.5 256.5 186.5 94 257zm384 256q0 120-71 224.5t-195 176.5q10 24 20.5 44t25 38.5 22.5 29 26 29.5 23 25q1 1 4 4.5t4.5 5 4 5 3.5 5.5l2.5 5 2 6 .5 6.5-1 6.5q-3 14-13 22t-22 7q-50-7-86-16-154-40-278-128-90 16-176 16-271 0-472-132 58 4 88 4 161 0 309-45t264-129q125-92 192-212t67-254q0-77-23-152 129 71 204 178t75 230z"/></symbol><symbol id="icon-minus-circle" viewBox="0 0 1792 1792"><path d="M1344 960v-128q0-26-19-45t-45-19h-768q-26 0-45 19t-19 45v128q0 26 19 45t45 19h768q26 0 45-19t19-45zm320-64q0 209-103 385.5t-279.5 279.5-385.5 103-385.5-103-279.5-279.5-103-385.5 103-385.5 279.5-279.5 385.5-103 385.5 103 279.5 279.5 103 385.5z"/></symbol><symbol id="icon-minus" viewBox="0 0 1792 1792"><path d="M1600 736v192q0 40-28 68t-68 28h-1216q-40 0-68-28t-28-68v-192q0-40 28-68t68-28h1216q40 0 68 28t28 68z"/></symbol><symbol id="icon-monitor" viewBox="-695 746 1792 1792">
<g id="Monitor">
	<path d="M400.7,2221.8c-0.4,0-0.9,0-1.3,0c-18-0.6-33.2-13.7-36.5-31.4l-166-900.1L69.5,1846.7c-3.7,16-17.1,27.9-33.4,29.6
		c-16.3,1.8-31.9-7.1-38.8-22l-160.7-345.5l-80.6,176c-6.3,13.7-19.9,22.4-34.9,22.4h-249.6c-21.2,0-38.4-17.2-38.4-38.4
		c0-21.2,17.2-38.4,38.4-38.4h224.9l104.9-229.2c6.2-13.6,19.8-22.4,34.8-22.4c0,0,0.1,0,0.1,0c14.9,0,28.5,8.7,34.8,22.2
		l148.6,319.4l144-628.4c4.1-17.8,20-30.3,38.3-29.8c18.2,0.4,33.6,13.5,36.9,31.4l167.9,910.3l122-480.8
		c3.9-15.2,16.6-26.5,32.2-28.6c15.6-2.1,30.8,5.5,38.5,19.2l65.8,116.8h265.6c21.2,0,38.4,17.2,38.4,38.4
		c0,21.2-17.2,38.4-38.4,38.4h-288c-13.9,0-26.7-7.5-33.5-19.6l-29.7-52.7l-141.5,557.9C433.6,2210,418.2,2221.8,400.7,2221.8z"/>
</g>
<g id="Layer_1_1_">
</g>
</symbol><symbol id="icon-network" viewBox="-720 722 1792 1792">
<polygon points="790.4,2031.3 790.4,1656.6 790.4,1656.6 790.4,1626.8 220.1,1626.8 220.1,1374.5 527.6,1374.5 527.6,850.2 
	-175.6,850.2 -175.6,1374.5 131.5,1374.5 131.5,1626.8 -438.4,1626.8 -438.4,1715.4 -438.4,1715.4 -438.4,2031.3 -592,2031.3 
	-592,2385.8 -196.3,2385.8 -196.3,2031.3 -349.8,2031.3 -349.8,1715.4 131.5,1715.4 131.5,2031.3 -22.1,2031.3 -22.1,2385.8 
	373.6,2385.8 373.6,2031.3 220.1,2031.3 220.1,1715.4 701.8,1715.4 701.8,2031.3 548.3,2031.3 548.3,2385.8 944,2385.8 944,2031.3 
	"/>
</symbol><symbol id="icon-netx" viewBox="590 1292 1792 1792">
<path d="M2075.4,2227.9c-7.8,68.7-65.8,120.5-134.8,120.5c-5.2,0-10.5-0.3-15.7-0.9c-35.9-4.1-66.8-22-88.4-47.6
	c-21.4-25.4-33.4-58.4-31.8-93.6c0.1-3.1,0.2-6.1,0.6-9.2c1.7-14.9,5.9-28.9,11.9-41.8c14.4-31,40-55.5,71.4-68.4
	c15.9-6.6,33.3-10.3,51.5-10.3c5.2,0,10.5,0.3,15.7,0.9C2030.2,2085.9,2083.9,2153.4,2075.4,2227.9z M2328.5,2492.2
	c-168,465.3-681.4,706.3-1146.7,538.3c-465.3-168-706.3-681.4-538.3-1146.7c168-465.3,681.4-706.3,1146.7-538.3
	S2496.5,2026.9,2328.5,2492.2z M1964.2,2003.7c-8.1-0.9-16.1-1.4-24.1-1.4c-37.9,0-73.9,10.4-105.1,28.5l-201.2-210.4
	c41.7-74.4,18.1-169.2-55-214.7c-75.3-46.9-174.4-23.9-221.3,51.4c-46.9,75.3-23.9,174.4,51.4,221.3c47.7,29.7,105,31.3,152.5,9.3
	l202.1,211.3c-16.8,26.2-28.1,56.5-31.9,89.5c-1.6,14.4-1.8,28.7-0.6,42.6l-375.5,127.3c-36.3-60.5-99.1-104.2-174.6-112.8
	c-128.8-14.7-245.2,77.8-259.9,206.6c-14.7,128.8,77.8,245.2,206.6,259.9c128.8,14.7,245.2-77.8,259.9-206.6
	c2.1-18.2,1.8-36-0.2-53.5l375.5-127.3c32.8,51.8,87.9,88.9,153.6,96.4c8.1,0.9,16.1,1.4,24.1,1.4c105.4,0,196.2-79.1,208.5-186.3
	C2162.2,2121,2079.4,2016.9,1964.2,2003.7z"/>
</symbol><symbol id="icon-object-storage" viewBox="-721 697.4 1792 1792">
<path d="M845.8,998.3h-0.2c-7.9-95.8-305.1-172.9-670.6-172.9s-662.6,77-670.6,172.9h-0.2l0.1,1.2c-0.1,0.9-0.1,1.8-0.1,2.8
	c0,4.7,0.7,9.3,2,13.9l138.3,1203.6c0,0.4-0.1,0.7-0.1,1.1c0,77.7,238.8,140.7,533.4,140.7s533.4-63,533.4-140.7l132.6-1205.1
	c1.3-4.4,1.9-8.9,1.9-13.4c0-0.9-0.1-1.8-0.1-2.7L845.8,998.3z M178,1185.2c-294.7,0-533.6-63-533.6-140.7S-116.6,903.9,178,903.9
	s533.6,63,533.6,140.7S472.7,1185.2,178,1185.2z"/>
</symbol><symbol id="icon-package" viewBox="-707 692.5 1792 1792">
<path d="M780.3,1211c35.8-20.5,35.8-54,0-74.4L254.1,835.9c-35.8-20.5-94.5-20.5-130.3,0l-526.2,300.7c-35.8,20.5-35.8,54,0,74.4
	l526.2,300.7c35.8,20.5,94.5,20.5,130.3,0L780.3,1211z M829.7,1283.4l-523.6,309.9c-35.5,21-64.6,72-64.6,113.2v604
	c0,41.3,29.1,58,64.7,37.1l523.3-306.7c35.6-20.9,64.7-71.7,64.7-113v-607.6C894.2,1278.9,865.2,1262.4,829.7,1283.4z M71.9,1593.3
	l-523.6-309.9c-35.5-21-64.6-4.4-64.6,36.8v607.6c0,41.3,29.1,92.1,64.7,113l523.3,306.8c35.6,20.9,64.7,4.2,64.7-37.1v-604
	C136.5,1665.2,107.4,1614.3,71.9,1593.3z"/>
</symbol><symbol id="icon-pause" viewBox="0 0 1792 1792"><path d="M1664 192v1408q0 26-19 45t-45 19h-512q-26 0-45-19t-19-45v-1408q0-26 19-45t45-19h512q26 0 45 19t19 45zm-896 0v1408q0 26-19 45t-45 19h-512q-26 0-45-19t-19-45v-1408q0-26 19-45t45-19h512q26 0 45 19t19 45z"/></symbol><symbol id="icon-permissions" viewBox="-720 697 1792 1792">
<g id="Permissions">
	<g id="permissions">
		<g>
			<path d="M771.2,1515.9H752V1401c0-318.1-257.9-576-576-576s-576,257.9-576,576v114.9h-19.2c-42.4,0-76.8,34.4-76.8,76.8v691.5
				c0,42.4,34.4,76.8,76.8,76.8H771.2c42.4,0,76.8-34.4,76.8-76.8v-691.5C848,1550.2,813.6,1515.9,771.2,1515.9z M-169.6,1401
				c0-190.9,154.7-345.6,345.6-345.6s345.6,154.7,345.6,345.6v114.9h-691.2V1401z"/>
		</g>
	</g>
</g>
<g id="Layer_1_1_">
</g>
</symbol><symbol id="icon-phone-square" viewBox="0 0 1792 1792"><path d="M1408 1193q0-11-2-16-3-8-38.5-29.5t-88.5-49.5l-53-29q-5-3-19-13t-25-15-21-5q-18 0-47 32.5t-57 65.5-44 33q-7 0-16.5-3.5t-15.5-6.5-17-9.5-14-8.5q-99-55-170.5-126.5t-126.5-170.5q-2-3-8.5-14t-9.5-17-6.5-15.5-3.5-16.5q0-13 20.5-33.5t45-38.5 45-39.5 20.5-36.5q0-10-5-21t-15-25-13-19q-3-6-15-28.5t-25-45.5-26.5-47.5-25-40.5-16.5-18-16-2q-48 0-101 22-46 21-80 94.5t-34 130.5q0 16 2.5 34t5 30.5 9 33 10 29.5 12.5 33 11 30q60 164 216.5 320.5t320.5 216.5q6 2 30 11t33 12.5 29.5 10 33 9 30.5 5 34 2.5q57 0 130.5-34t94.5-80q22-53 22-101zm256-777v960q0 119-84.5 203.5t-203.5 84.5h-960q-119 0-203.5-84.5t-84.5-203.5v-960q0-119 84.5-203.5t203.5-84.5h960q119 0 203.5 84.5t84.5 203.5z"/></symbol><symbol id="icon-phone" viewBox="0 0 1792 1792"><path d="M1600 1240q0 27-10 70.5t-21 68.5q-21 50-122 106-94 51-186 51-27 0-52.5-3.5t-57.5-12.5-47.5-14.5-55.5-20.5-49-18q-98-35-175-83-128-79-264.5-215.5t-215.5-264.5q-48-77-83-175-3-9-18-49t-20.5-55.5-14.5-47.5-12.5-57.5-3.5-52.5q0-92 51-186 56-101 106-122 25-11 68.5-21t70.5-10q14 0 21 3 18 6 53 76 11 19 30 54t35 63.5 31 53.5q3 4 17.5 25t21.5 35.5 7 28.5q0 20-28.5 50t-62 55-62 53-28.5 46q0 9 5 22.5t8.5 20.5 14 24 11.5 19q76 137 174 235t235 174q2 1 19 11.5t24 14 20.5 8.5 22.5 5q18 0 46-28.5t53-62 55-62 50-28.5q14 0 28.5 7t35.5 21.5 25 17.5q25 15 53.5 31t63.5 35 54 30q70 35 76 53 3 7 3 21z"/></symbol><symbol id="icon-pie-chart" viewBox="0 0 1792 1792"><path d="M768 890l546 546q-106 108-247.5 168t-298.5 60q-209 0-385.5-103t-279.5-279.5-103-385.5 103-385.5 279.5-279.5 385.5-103v762zm187 6h773q0 157-60 298.5t-168 247.5zm709-128h-768v-768q209 0 385.5 103t279.5 279.5 103 385.5z"/></symbol><symbol id="icon-play" viewBox="0 0 1792 1792"><path d="M1576 927l-1328 738q-23 13-39.5 3t-16.5-36v-1472q0-26 16.5-36t39.5 3l1328 738q23 13 23 31t-23 31z"/></symbol><symbol id="icon-plus-circle" viewBox="0 0 1792 1792"><path d="M1344 960v-128q0-26-19-45t-45-19h-256v-256q0-26-19-45t-45-19h-128q-26 0-45 19t-19 45v256h-256q-26 0-45 19t-19 45v128q0 26 19 45t45 19h256v256q0 26 19 45t45 19h128q26 0 45-19t19-45v-256h256q26 0 45-19t19-45zm320-64q0 209-103 385.5t-279.5 279.5-385.5 103-385.5-103-279.5-279.5-103-385.5 103-385.5 279.5-279.5 385.5-103 385.5 103 279.5 279.5 103 385.5z"/></symbol><symbol id="icon-plus" viewBox="0 0 1792 1792"><path d="M1600 736v192q0 40-28 68t-68 28h-416v416q0 40-28 68t-68 28h-192q-40 0-68-28t-28-68v-416h-416q-40 0-68-28t-28-68v-192q0-40 28-68t68-28h416v-416q0-40 28-68t68-28h192q40 0 68 28t28 68v416h416q40 0 68 28t28 68z"/></symbol><symbol id="icon-policies" viewBox="0 0 1792 1792">
<path d="M1216,192v256h256L1216,192z M1087,576l1-384H320v1408h1152V576H1087z M704,448h256v128H704V448z M576,1344H448v-128h128
	V1344z M576,1088H448V960h128V1088z M576,832H448V704h128V832z M576,576H448V448h128V576z M1344,1344H704v-128h640V1344z M1344,1088
	H704V960h640V1088z M1344,832H704V704h640V832z"/>
</symbol><symbol id="icon-power" viewBox="0 0 1792 1792"><path d="M1664 896q0 156-61 298t-164 245-245 164-298 61-298-61-245-164-164-245-61-298q0-182 80.5-343t226.5-270q43-32 95.5-25t83.5 50q32 42 24.5 94.5t-49.5 84.5q-98 74-151.5 181t-53.5 228q0 104 40.5 198.5t109.5 163.5 163.5 109.5 198.5 40.5 198.5-40.5 163.5-109.5 109.5-163.5 40.5-198.5q0-121-53.5-228t-151.5-181q-42-32-49.5-84.5t24.5-94.5q31-43 84-50t95 25q146 109 226.5 270t80.5 343zm-640-768v640q0 52-38 90t-90 38-90-38-38-90v-640q0-52 38-90t90-38 90 38 38 90z"/></symbol><symbol id="icon-question-circle" viewBox="0 0 1792 1792"><path d="M1024 1376v-192q0-14-9-23t-23-9h-192q-14 0-23 9t-9 23v192q0 14 9 23t23 9h192q14 0 23-9t9-23zm256-672q0-88-55.5-163t-138.5-116-170-41q-243 0-371 213-15 24 8 42l132 100q7 6 19 6 16 0 25-12 53-68 86-92 34-24 86-24 48 0 85.5 26t37.5 59q0 38-20 61t-68 45q-63 28-115.5 86.5t-52.5 125.5v36q0 14 9 23t23 9h192q14 0 23-9t9-23q0-19 21.5-49.5t54.5-49.5q32-18 49-28.5t46-35 44.5-48 28-60.5 12.5-81zm384 192q0 209-103 385.5t-279.5 279.5-385.5 103-385.5-103-279.5-279.5-103-385.5 103-385.5 279.5-279.5 385.5-103 385.5 103 279.5 279.5 103 385.5z"/></symbol><symbol id="icon-question" viewBox="0 0 1792 1792"><path d="M1088 1256v240q0 16-12 28t-28 12h-240q-16 0-28-12t-12-28v-240q0-16 12-28t28-12h240q16 0 28 12t12 28zm316-600q0 54-15.5 101t-35 76.5-55 59.5-57.5 43.5-61 35.5q-41 23-68.5 65t-27.5 67q0 17-12 32.5t-28 15.5h-240q-15 0-25.5-18.5t-10.5-37.5v-45q0-83 65-156.5t143-108.5q59-27 84-56t25-76q0-42-46.5-74t-107.5-32q-65 0-108 29-35 25-107 115-13 16-31 16-12 0-25-8l-164-125q-13-10-15.5-25t5.5-28q160-266 464-266 80 0 161 31t146 83 106 127.5 41 158.5z"/></symbol><symbol id="icon-queue-add" viewBox="521 -521 1856 1792"><path d="M585-9h1664c17.3,0,32.3-6.3,45-19s19-27.7,19-45v-256c0-17.3-6.3-32.3-19-45s-27.7-19-45-19H585c-17.3,0-32.3,6.3-45,19
	s-19,27.7-19,45v256c0,17.3,6.3,32.3,19,45S567.7-9,585-9z M1801-265h384v128h-384V-265z M1100,631H585c-17.3,0-32.3,6.3-45,19
	s-19,27.7-19,45v256c0,17.3,6.3,32.3,19,45s27.7,19,45,19h589c-51.3-100.7-77-207.3-77-320C1097,673.7,1098,652.3,1100,631z
	 M585,503h538c22.7-78,57.5-150,104.5-216s103.2-122,168.5-168H585c-17.3,0-32.3,6.3-45,19s-19,27.7-19,45v256
	c0,17.3,6.3,32.3,19,45S567.7,503,585,503z M1801,119c-318.1,0-576,257.9-576,576s257.9,576,576,576s576-257.9,576-576
	S2119.1,119,1801,119z M2185,791h-288v288h-192V791h-288V599h288V311h192v288h288V791z"/></symbol><symbol id="icon-queue-archive" viewBox="521 -521 1920 1792"><path d="M2294-374c-12.7-12.7-27.7-19-45-19H585c-17.3,0-32.3,6.3-45,19s-19,27.7-19,45v256c0,17.3,6.3,32.3,19,45
	s27.7,19,45,19h1664c17.3,0,32.3-6.3,45-19s19-27.7,19-45v-256C2313-346.3,2306.7-361.3,2294-374z M1801-137v-128h384v128H1801z
	 M1289,119H585c-17.3,0-32.3,6.3-45,19s-19,27.7-19,45v256c0,17.3,6.3,32.3,19,45s27.7,19,45,19h704V119z M1431.5,130.5
	c7.7-7,16.8-10.5,27.5-10.5h939c12.7,0,23,3.3,31,10s12,16,12,28v180c0,10-4.2,18.8-12.5,26.5S2410,376,2398,376h-939
	c-10,0-19-4-27-12s-12-16.7-12-26V158C1420,146.7,1423.8,137.5,1431.5,130.5z M1459.5,448.5c8.3-8.3,18.5-12.5,30.5-12.5h884
	c9.3,0,17.8,4.3,25.5,13s11.5,18.7,11.5,30v625c0,11.3-3.8,20.7-11.5,28s-16.2,11-25.5,11h-884c-12,0-22.2-3.5-30.5-10.5
	S1447,1116,1447,1104V479C1447,467,1451.2,456.8,1459.5,448.5z M1813.5,629.5c7.7,7,16.8,10.5,27.5,10.5h180c25.3,0,38-12.7,38-38
	s-12.7-38-38-38h-180c-10.7,0-19.8,3.5-27.5,10.5S1802,590.7,1802,602S1805.8,622.5,1813.5,629.5z M1289,631H585
	c-17.3,0-32.3,6.3-45,19s-19,27.7-19,45v256c0,17.3,6.3,32.3,19,45s27.7,19,45,19h704V631z"/>
</symbol><symbol id="icon-queue-delete" viewBox="521 -521 1856 1792">
<path d="M585-9h1664c17.3,0,32.3-6.3,45-19s19-27.7,19-45v-256c0-17.3-6.3-32.3-19-45s-27.7-19-45-19H585c-17.3,0-32.3,6.3-45,19
	s-19,27.7-19,45v256c0,17.3,6.3,32.3,19,45S567.7-9,585-9z M1801-265h384v128h-384V-265z M1100,631H585c-17.3,0-32.3,6.3-45,19
	s-19,27.7-19,45v256c0,17.3,6.3,32.3,19,45s27.7,19,45,19h589c-51.3-100.7-77-207.3-77-320C1097,673.7,1098,652.3,1100,631z
	 M585,503h538c22.7-78,57.5-150,104.5-216s103.2-122,168.5-168H585c-17.3,0-32.3,6.3-45,19s-19,27.7-19,45v256
	c0,17.3,6.3,32.3,19,45S567.7,503,585,503z M1801,119c-318.1,0-576,257.9-576,576s257.9,576,576,576s576-257.9,576-576
	S2119.1,119,1801,119z M2140.4,491.4L1936.8,695l203.6,203.6l-135.8,135.8L1801,830.8l-203.6,203.6l-135.8-135.8L1665.2,695
	l-203.6-203.6l135.8-135.8L1801,559.2l203.6-203.6L2140.4,491.4z"/>
</symbol><symbol id="icon-queue-restore" viewBox="521 -521 2022 1792"><path d="M2294-28.5c12.7-13,19-28.2,19-45.5v-255c0-18-6.3-33.2-19-45.5s-27.7-18.5-45-18.5H585
	c-17.3,0-32.3,6.2-45,18.5S521-347,521-329v255c0,17.3,6.3,32.5,19,45.5S567.7-9,585-9h1664C2266.3-9,2281.3-15.5,2294-28.5z
	 M2185-266v128h-362v-128H2185z M2189,95c-10.7,0-19.8,4-27.5,12s-11.5,17.3-11.5,28v157h-138c-292,0-471,82.7-537,248
	c-22.7,54.7-34,122.7-34,204c0,70,26.3,162.7,79,278c10.7,24.7,18,40.3,22,47c4.7,6.7,10.7,10,18,10c12.7,0,19-7,19-21
	c0-7.3-1.3-17.7-4-31c0-6-0.3-14.2-1-24.5s-1.2-19.7-1.5-28s-0.5-16.2-0.5-23.5c0-48,4.5-90.5,13.5-127.5s23-67.8,42-92.5
	s40.5-45.3,64.5-62s53.5-29.5,88.5-38.5S1851,615.3,1887,612s77.7-5,125-5h138v157c0,10.7,3.8,19.8,11.5,27.5s16.8,11.5,27.5,11.5
	s20-4,28-12l314-314c8-7.3,12-16.7,12-28c0-10.7-4-20-12-28l-314-315C2209.7,98.7,2200.3,95,2189,95z M1381,502
	c49.3-122.7,144-209.7,284-261c96-33.3,211.7-50,347-50h37v-56c0-2.7,0.2-5.8,0.5-9.5s0.5-6.2,0.5-7.5H585c-17.3,0-32.3,6.3-45,19
	s-19,28-19,46v255c0,17.3,6.3,32.5,19,45.5s27.7,19.5,45,19.5h796V502z M540,649.5c-12.7,13-19,28.2-19,45.5v255
	c0,17.3,6.3,32.3,19,45s27.7,19,45,19h822c-44-109.3-66-199.3-66-270c0-43.3,2.3-81.3,7-114H585C567.7,630,552.7,636.5,540,649.5z"/>
</symbol><symbol id="icon-queue" viewBox="0 0 1792 1792"><path d="M1024 1408h640v-128h-640v128zm-384-512h1024v-128h-1024v128zm640-512h384v-128h-384v128zm512 832v256q0 26-19 45t-45 19h-1664q-26 0-45-19t-19-45v-256q0-26 19-45t45-19h1664q26 0 45 19t19 45zm0-512v256q0 26-19 45t-45 19h-1664q-26 0-45-19t-19-45v-256q0-26 19-45t45-19h1664q26 0 45 19t19 45zm0-512v256q0 26-19 45t-45 19h-1664q-26 0-45-19t-19-45v-256q0-26 19-45t45-19h1664q26 0 45 19t19 45z"/></symbol><symbol id="icon-refresh" viewBox="0 0 1792 1792"><path d="M1639 1056q0 5-1 7-64 268-268 434.5t-478 166.5q-146 0-282.5-55t-243.5-157l-129 129q-19 19-45 19t-45-19-19-45v-448q0-26 19-45t45-19h448q26 0 45 19t19 45-19 45l-137 137q71 66 161 102t187 36q134 0 250-65t186-179q11-17 53-117 8-23 30-23h192q13 0 22.5 9.5t9.5 22.5zm25-800v448q0 26-19 45t-45 19h-448q-26 0-45-19t-19-45 19-45l138-138q-148-137-349-137-134 0-250 65t-186 179q-11 17-53 117-8 23-30 23h-199q-13 0-22.5-9.5t-9.5-22.5v-7q65-268 270-434.5t480-166.5q146 0 284 55.5t245 156.5l130-129q19-19 45-19t45 19 19 45z"/></symbol><symbol id="icon-restore-point-in-time" viewBox="0 0 1792 1535.9"><title>restore</title><path d="M1023.6,128C599,128,256,471.9,256,896H0l332.4,332.4,6,12.4L682.7,896h-256c0-329.8,267.5-597.3,597.3-597.3S1621.3,566.2,1621.3,896s-267.5,597.3-597.3,597.3c-165.1,0-314-67.4-422-175.4L481.3,1438.6c138.7,139.1,330.2,225.3,542.3,225.3,424.5,0,768.4-343.9,768.4-768S1448.1,128,1023.6,128ZM938.7,554.7V981.4l365.2,216.7,61.4-103.7L1066.6,917.3V554.7H938.7Z" transform="translate(0 -128)"/></symbol><symbol id="icon-restore" viewBox="0 0 1792 1536"><title>restore</title><path d="M1194.67,896c0-93.87-76.8-170.67-170.67-170.67S853.33,802.13,853.33,896s76.8,170.67,170.67,170.67S1194.67,989.87,1194.67,896ZM1024,128c-424.11,0-768,343.89-768,768H0l341.33,341.33L682.67,896h-256c0-330.24,267.09-597.33,597.33-597.33S1621.33,565.76,1621.33,896,1354.24,1493.33,1024,1493.33c-128.85,0-248.32-41.81-346.45-110.93L556.37,1505.28C686.08,1604.27,848.21,1664,1024,1664c424.11,0,768-343.89,768-768S1448.11,128,1024,128Z" transform="translate(0 -128)"/></symbol><symbol id="icon-runner" viewBox="590 1292 1792 1792">
<path d="M1821.4,2582.2h-228.4l-110.1-180.9h-78.8v180.9H1193v-788.4h299.2c212.1,0,331.5,134.5,331.5,309.6
	c0,113.6-49.8,204-142.5,255L1821.4,2582.2z M1481.7,2233.2c95.1,0,129.9-53.3,129.9-129.8c0-76.5-34.8-131-129.9-131h-77.6v260.9
	H1481.7z M2364,2393.6c0,0-174-91.1-174-205.6s174-205.6,174-205.6c13.9-7.3,21.3-25.5,16.5-40.5l-87.9-212.6
	c-7.1-14-25.3-21.6-40.3-16.9c0,0-187.5,58.7-268.5-22.3c-81-81-22.3-268.5-22.3-268.5c4.7-15-2.9-33.1-16.9-40.3l-212.6-87.9
	c-15-4.9-33.2,2.5-40.5,16.5c0,0-91.1,174-205.6,174c-114.5,0-205.6-174-205.6-174c-7.3-13.9-25.5-21.3-40.5-16.5l-212.6,87.9
	c-14,7.1-21.6,25.3-16.9,40.3c0,0,58.7,187.5-22.3,268.5c-81,81-268.5,22.3-268.5,22.3c-15-4.7-33.1,2.9-40.3,16.9L591.5,1942
	c-4.9,15,2.5,33.2,16.5,40.5c0,0,174,91.1,174,205.6s-174,205.6-174,205.6c-13.9,7.3-21.3,25.5-16.5,40.5l87.9,212.6
	c7.1,14,25.3,21.6,40.3,16.9c0,0,187.5-58.7,268.5,22.3s22.3,268.5,22.3,268.5c-4.7,15,2.9,33.1,16.9,40.3l212.6,87.9
	c15,4.9,33.2-2.5,40.4-16.5c0,0,91.1-174,205.6-174c114.5,0,205.6,174,205.6,174c7.3,13.9,25.5,21.3,40.4,16.5l212.6-87.9
	c14-7.1,21.6-25.3,16.9-40.3c0,0-58.7-187.5,22.3-268.5c81-81,268.5-22.3,268.5-22.3c15,4.7,33.1-2.9,40.3-16.9l87.9-212.6
	C2385.4,2419.1,2378,2400.9,2364,2393.6z M1486,2792.7c-333.5,0-604.7-271.3-604.7-604.7s271.3-604.8,604.7-604.8
	s604.7,271.3,604.7,604.8S1819.5,2792.7,1486,2792.7z"/>
</symbol><symbol id="icon-scheduled-tasks" viewBox="-685 699 1792 1792">
<path fill="000000" d="M963.8,990.8H825.1V812.5H666.6v178.3h-911.2V812.5h-158.5v178.3h-138.7c-43.8,0-79.2,35.5-79.2,79.2v1228.2
  c0,43.8,35.5,79.2,79.2,79.2H963.8c43.8,0,79.2-35.5,79.2-79.2V1070C1043,1026.3,1007.5,990.8,963.8,990.8z M905.7,2238.8H-482.2
  v-868.3H905.7V2238.8z M765.7,1822.8H488.3v277.3h277.3V1822.8z"/>
</symbol><symbol id="icon-script" viewBox="0 0 1792 1792">
<path d="M811.4,1368.8l-47.9-47.8L663,1421.5c-27.8,27.8-41.6,64-41.6,100.5c0,36.4,13.8,72.7,41.6,100.5
	c27.8,27.7,63.9,41.5,100.3,41.6c36.5,0,72.8-13.7,100.6-41.6c27.8-27.8,41.6-64,41.6-100.5c0-36.4-13.8-72.6-41.6-100.5
	L811.4,1368.8z M713.6,784.2l381-381l32.6-32.6c27.8-27.8,41.6-64,41.6-100.5c0-36.4-13.8-72.6-41.6-100.4
	c-27.8-27.8-64-41.6-100.5-41.6c-36.5,0-72.7,13.8-100.5,41.6L514.6,583.2c50.7,0.6,101.4,20.3,140,59
	C693.7,681.3,713.5,732.9,713.6,784.2z M1379.8,905.7l-52.6-52.7L1028,553.8L654.6,927.2l-42-42c27.8-27.8,41.6-64,41.6-100.5
	c0-36.5-13.8-72.7-41.6-100.5c-27.8-27.8-64-41.6-100.5-41.6c-36.5,0-72.7,13.8-100.5,41.6c-27.8,27.8-41.6,64-41.6,100.5
	c0,36.4,13.8,72.6,41.6,100.5l441.7,441.7l52.6,52.6c39.3,39.3,59,91,59,142.4c0,0.7-0.1,1.3-0.1,2l414.9-414.9
	c28.1-28.2,42.1-64.8,42.1-101.7C1421.9,970.4,1408,933.8,1379.8,905.7z M824.3,1097l-70-70l294.2-294.2l70,70L824.3,1097z
	 M986.9,1259.6l-70-70l294.2-294.2l70,70L986.9,1259.6z"/>
</symbol><symbol id="icon-search" viewBox="0 0 1792 1792"><path d="M1216 832q0-185-131.5-316.5t-316.5-131.5-316.5 131.5-131.5 316.5 131.5 316.5 316.5 131.5 316.5-131.5 131.5-316.5zm512 832q0 52-38 90t-90 38q-54 0-90-38l-343-342q-179 124-399 124-143 0-273.5-55.5t-225-150-150-225-55.5-273.5 55.5-273.5 150-225 225-150 273.5-55.5 273.5 55.5 225 150 150 225 55.5 273.5q0 220-124 399l343 343q37 37 37 90z"/></symbol><symbol id="icon-settings" viewBox="0 0 1792 1792"><path d="M1152 896q0-106-75-181t-181-75-181 75-75 181 75 181 181 75 181-75 75-181zm512-109v222q0 12-8 23t-20 13l-185 28q-19 54-39 91 35 50 107 138 10 12 10 25t-9 23q-27 37-99 108t-94 71q-12 0-26-9l-138-108q-44 23-91 38-16 136-29 186-7 28-36 28h-222q-14 0-24.5-8.5t-11.5-21.5l-28-184q-49-16-90-37l-141 107q-10 9-25 9-14 0-25-11-126-114-165-168-7-10-7-23 0-12 8-23 15-21 51-66.5t54-70.5q-27-50-41-99l-183-27q-13-2-21-12.5t-8-23.5v-222q0-12 8-23t19-13l186-28q14-46 39-92-40-57-107-138-10-12-10-24 0-10 9-23 26-36 98.5-107.5t94.5-71.5q13 0 26 10l138 107q44-23 91-38 16-136 29-186 7-28 36-28h222q14 0 24.5 8.5t11.5 21.5l28 184q49 16 90 37l142-107q9-9 24-9 13 0 25 10 129 119 165 170 7 8 7 22 0 12-8 23-15 21-51 66.5t-54 70.5q26 50 41 98l183 28q13 2 21 12.5t8 23.5z"/></symbol><symbol id="icon-shield" viewBox="0 0 1792 1792"><path d="M1344 960v-640h-448v1137q119-63 213-137 235-184 235-360zm192-768v768q0 86-33.5 170.5t-83 150-118 127.5-126.5 103-121 77.5-89.5 49.5-42.5 20q-12 6-26 6t-26-6q-16-7-42.5-20t-89.5-49.5-121-77.5-126.5-103-118-127.5-83-150-33.5-170.5v-768q0-26 19-45t45-19h1152q26 0 45 19t19 45z"/></symbol><symbol id="icon-shopping-cart" viewBox="0 0 1792 1731.2"><title>cloud-upload</title><path d="M537.6,1403.2c-98.56,0-178.3,80.64-178.3,179.2S439,1761.6,537.6,1761.6,716.8,1681,716.8,1582.4,636.16,1403.2,537.6,1403.2ZM0,90.47v58.78A60.35,60.35,0,0,0,60.35,209.6H179.11a0.15,0.15,0,0,1,.13.08L501.73,889.6a0.15,0.15,0,0,1,0,.14L380.8,1109.18a172.33,172.33,0,0,0-22.18,77.07c-5.05,102.63,78,188.15,180.79,188.15H1612.65a0.15,0.15,0,0,0,.15-0.15v-178.9a0.15,0.15,0,0,0-.15-0.15H575.23a22.18,22.18,0,0,1-22.4-22.38,0.16,0.16,0,0,1,0,0l2.68-10.71v0l80.59-146a0.15,0.15,0,0,1,.13-0.08h667.43a178.35,178.35,0,0,0,156.8-92.29l320.77-581.5c7.17-12.54,10.75-27.78,10.75-43,0-49.28-40.32-89.6-89.6-89.6H377.31a0.15,0.15,0,0,1-.13-0.09L293,30.49a0.15,0.15,0,0,0-.13-0.09H60.07A60.07,60.07,0,0,0,0,90.47ZM1433.6,1403.2c-98.56,0-178.3,80.64-178.3,179.2s79.74,179.2,178.3,179.2,179.2-80.64,179.2-179.2S1532.16,1403.2,1433.6,1403.2Z" transform="translate(0 -30.4)"/></symbol><symbol id="icon-snapshot" viewBox="0 0 1792 1792"><path d="M928 832q0-14-9-23t-23-9q-66 0-113 47t-47 113q0 14 9 23t23 9 23-9 9-23q0-40 28-68t68-28q14 0 23-9t9-23zm224 130q0 106-75 181t-181 75-181-75-75-181 75-181 181-75 181 75 75 181zm-1024 574h1536v-128h-1536v128zm1152-574q0-159-112.5-271.5t-271.5-112.5-271.5 112.5-112.5 271.5 112.5 271.5 271.5 112.5 271.5-112.5 112.5-271.5zm-1024-642h384v-128h-384v128zm-128 192h1536v-256h-828l-64 128h-644v128zm1664-256v1280q0 53-37.5 90.5t-90.5 37.5h-1536q-53 0-90.5-37.5t-37.5-90.5v-1280q0-53 37.5-90.5t90.5-37.5h1536q53 0 90.5 37.5t37.5 90.5z"/></symbol><symbol id="icon-spinner" viewBox="0 0 1792 1792"><path d="M526 1394q0 53-37.5 90.5t-90.5 37.5q-52 0-90-38t-38-90q0-53 37.5-90.5t90.5-37.5 90.5 37.5 37.5 90.5zm498 206q0 53-37.5 90.5t-90.5 37.5-90.5-37.5-37.5-90.5 37.5-90.5 90.5-37.5 90.5 37.5 37.5 90.5zm-704-704q0 53-37.5 90.5t-90.5 37.5-90.5-37.5-37.5-90.5 37.5-90.5 90.5-37.5 90.5 37.5 37.5 90.5zm1202 498q0 52-38 90t-90 38q-53 0-90.5-37.5t-37.5-90.5 37.5-90.5 90.5-37.5 90.5 37.5 37.5 90.5zm-964-996q0 66-47 113t-113 47-113-47-47-113 47-113 113-47 113 47 47 113zm1170 498q0 53-37.5 90.5t-90.5 37.5-90.5-37.5-37.5-90.5 37.5-90.5 90.5-37.5 90.5 37.5 37.5 90.5zm-640-704q0 80-56 136t-136 56-136-56-56-136 56-136 136-56 136 56 56 136zm530 206q0 93-66 158.5t-158 65.5q-93 0-158.5-65.5t-65.5-158.5q0-92 65.5-158t158.5-66q92 0 158 66t66 158z"/></symbol><symbol id="icon-square-o" viewBox="0 0 1792 1792"><path d="M1312 256h-832q-66 0-113 47t-47 113v832q0 66 47 113t113 47h832q66 0 113-47t47-113v-832q0-66-47-113t-113-47zm288 160v832q0 119-84.5 203.5t-203.5 84.5h-832q-119 0-203.5-84.5t-84.5-203.5v-832q0-119 84.5-203.5t203.5-84.5h832q119 0 203.5 84.5t84.5 203.5z"/></symbol><symbol id="icon-star" viewBox="0 0 1792 1792"><path d="M1728 647q0 22-26 48l-363 354 86 500q1 7 1 20 0 21-10.5 35.5t-30.5 14.5q-19 0-40-12l-449-236-449 236q-22 12-40 12-21 0-31.5-14.5t-10.5-35.5q0-6 2-20l86-500-364-354q-25-27-25-48 0-37 56-46l502-73 225-455q19-41 49-41t49 41l225 455 502 73q56 9 56 46z"/></symbol><symbol id="icon-stop" viewBox="0 0 1792 1792"><path d="M1664 192v1408q0 26-19 45t-45 19h-1408q-26 0-45-19t-19-45v-1408q0-26 19-45t45-19h1408q26 0 45 19t19 45z"/></symbol><symbol id="icon-storage" viewBox="0 0 278 350"><title>storage</title><path d="M278,116.6V38.9h-0.2a13.55,13.55,0,0,0,.2-2C278,16.5,215.8,0,139,0S0,16.5,0,36.9a13.55,13.55,0,0,0,.2,2H0V233H0v80H0c0,20.4,62.2,37,139,37s139-16.6,139-37V116.6Z"/></symbol><symbol id="icon-support" viewBox="0 0 433.99 415.15"><title>support</title><path d="M423.77,196.23l-10.32-3.61C410.54,86.14,323,.42,215.86.42c-107.44,0-195.12,86.15-197.62,193l-8,2.8a15,15,0,0,0-9,20.33L43.71,315.7a15.46,15.46,0,0,0,19,8.37l48.48-17a15,15,0,0,0,9-20.33L77.7,187.63a15.46,15.46,0,0,0-19-8.37l-9.81,3.43c7.81-85.26,79.7-152.27,167-152.27,87,0,158.7,66.57,166.89,151.44l-7.45-2.61a15.46,15.46,0,0,0-19,8.37l-42.43,99.15a15,15,0,0,0,9,20.33l13.43,4.7c-14.59,32.18-37.85,54-69,64.81a116.33,116.33,0,0,1-15.27,4.2V379c0-4.33-3.24-8.4-7.57-8.4H189.86c-4.32,0-7.86,4.08-7.86,8.4v28.74a7.89,7.89,0,0,0,7.86,7.86h54.57a7.64,7.64,0,0,0,7.57-7.86v-6.5a131.26,131.26,0,0,0,21-5.41c26.11-8.9,61-29.57,82.13-77.38l16.15,5.64a15.48,15.48,0,0,0,19-8.37l42.45-99.14A15,15,0,0,0,423.77,196.23Z" transform="translate(0 -0.42)"/></symbol><symbol id="icon-switch" viewBox="0 0 1792 1792">
<path d="M1644,686.5H148c-11,0-20,9-20,20v378.9c0,11,9,20,20,20h1496c11,0,20-9,20-20V706.5C1664,695.5,1655,686.5,1644,686.5z
	 M407.3,1035.6c-77.1,0-139.6-62.5-139.6-139.6s62.5-139.6,139.6-139.6S546.9,818.9,546.9,896S484.4,1035.6,407.3,1035.6z M704,983
	h-35v18h-35v-18h-35v-70h105V983z M704,861h-35v18h-35v-18h-35v-70h105V861z M844,983h-35v18h-35v-18h-35v-70h105V983z M844,861h-35
	v18h-35v-18h-35v-70h105V861z M983,983h-35v18h-35v-18h-34v-70h104V983z M983,861h-35v18h-35v-18h-34v-70h104V861z M1123,983h-35v18
	h-35v-18h-35v-70h105V983z M1123,861h-35v18h-35v-18h-35v-70h105V861z M1263,983h-35v18h-35v-18h-35v-70h105V983z M1263,861h-35v18
	h-35v-18h-35v-70h105V861z M1402,983h-35v18h-35v-18h-35v-70h105V983z M1402,861h-35v18h-35v-18h-35v-70h105V861z M1542,983h-35v18
	h-35v-18h-35v-70h105V983z M1542,861h-35v18h-35v-18h-35v-70h105V861z M407.3,826.2c-38.5,0-69.8,31.3-69.8,69.8
	c0,38.5,31.3,69.8,69.8,69.8c38.5,0,69.8-31.3,69.8-69.8C477.1,857.5,445.8,826.2,407.3,826.2z"/>
</symbol><symbol id="icon-template" viewBox="0 0 1792 1792"><path d="M1596 476q14 14 28 36h-472v-472q22 14 36 28zm-476 164h544v1056q0 40-28 68t-68 28h-1344q-40 0-68-28t-28-68v-1600q0-40 28-68t68-28h800v544q0 40 28 68t68 28zm160 736v-64q0-14-9-23t-23-9h-704q-14 0-23 9t-9 23v64q0 14 9 23t23 9h704q14 0 23-9t9-23zm0-256v-64q0-14-9-23t-23-9h-704q-14 0-23 9t-9 23v64q0 14 9 23t23 9h704q14 0 23-9t9-23zm0-256v-64q0-14-9-23t-23-9h-704q-14 0-23 9t-9 23v64q0 14 9 23t23 9h704q14 0 23-9t9-23z"/></symbol><symbol id="icon-ticket" viewBox="0 0 1792 1792"><path d="M1024 452l316 316-572 572-316-316zm-211 979l618-618q19-19 19-45t-19-45l-362-362q-18-18-45-18t-45 18l-618 618q-19 19-19 45t19 45l362 362q18 18 45 18t45-18zm889-637l-907 908q-37 37-90.5 37t-90.5-37l-126-126q56-56 56-136t-56-136-136-56-136 56l-125-126q-37-37-37-90.5t37-90.5l907-906q37-37 90.5-37t90.5 37l125 125q-56 56-56 136t56 136 136 56 136-56l126 125q37 37 37 90.5t-37 90.5z"/></symbol><symbol id="icon-times" viewBox="0 0 1792 1792"><path d="M1490 1322q0 40-28 68l-136 136q-28 28-68 28t-68-28l-294-294-294 294q-28 28-68 28t-68-28l-136-136q-28-28-28-68t28-68l294-294-294-294q-28-28-28-68t28-68l136-136q28-28 68-28t68 28l294 294 294-294q28-28 68-28t68 28l136 136q28 28 28 68t-28 68l-294 294 294 294q28 28 28 68z"/></symbol><symbol id="icon-toolbox" viewBox="0 0 1792 1792">
<path d="M1576.5,498h-407v-81.4c0-72.6-59.3-132.6-131.9-132.6h-284c-72.6,0-131.1,59.9-131.1,132.6V498H215.1
	c-48.5,0-87.1,42.7-87.1,91.2v357.7h662.8v-77.2c0-12.5,10.2-21,22.7-21h164.7c12.5,0,19.5,8.6,19.5,21v77.2H1664V589.2
	C1664,540.6,1625,498,1576.5,498z M1081.9,498H710.1v-81.4c0-24.2,19.2-44.9,43.5-44.9h284c24.2,0,44.3,20.7,44.3,44.9V498z
	 M997.7,1134.8c0,12.5-7,22.4-19.5,22.4H813.5c-12.5,0-22.7-10-22.7-22.4v-79.3H128v365.7c0,48.5,38.6,86.7,87.1,86.7h1361.4
	c48.5,0,87.5-38.2,87.5-86.7v-365.7H997.7V1134.8z"/>
</symbol><symbol id="icon-trash" viewBox="0 0 1792 1792"><path d="M704 1376v-704q0-14-9-23t-23-9h-64q-14 0-23 9t-9 23v704q0 14 9 23t23 9h64q14 0 23-9t9-23zm256 0v-704q0-14-9-23t-23-9h-64q-14 0-23 9t-9 23v704q0 14 9 23t23 9h64q14 0 23-9t9-23zm256 0v-704q0-14-9-23t-23-9h-64q-14 0-23 9t-9 23v704q0 14 9 23t23 9h64q14 0 23-9t9-23zm-544-992h448l-48-117q-7-9-17-11h-317q-10 2-17 11zm928 32v64q0 14-9 23t-23 9h-96v948q0 83-47 143.5t-113 60.5h-832q-66 0-113-58.5t-47-141.5v-952h-96q-14 0-23-9t-9-23v-64q0-14 9-23t23-9h309l70-167q15-37 54-63t79-26h320q40 0 79 26t54 63l70 167h309q14 0 23 9t9 23z"/></symbol><symbol id="icon-twitter" viewBox="0 0 1792 1792"><path d="M1684 408q-67 98-162 167 1 14 1 42 0 130-38 259.5t-115.5 248.5-184.5 210.5-258 146-323 54.5q-271 0-496-145 35 4 78 4 225 0 401-138-105-2-188-64.5t-114-159.5q33 5 61 5 43 0 85-11-112-23-185.5-111.5t-73.5-205.5v-4q68 38 146 41-66-44-105-115t-39-154q0-88 44-163 121 149 294.5 238.5t371.5 99.5q-8-38-8-74 0-134 94.5-228.5t228.5-94.5q140 0 236 102 109-21 205-78-37 115-142 178 93-10 186-50z"/></symbol><symbol id="icon-user" viewBox="0 0 1792 1792"><path d="M1600 1405q0 120-73 189.5t-194 69.5h-874q-121 0-194-69.5t-73-189.5q0-53 3.5-103.5t14-109 26.5-108.5 43-97.5 62-81 85.5-53.5 111.5-20q9 0 42 21.5t74.5 48 108 48 133.5 21.5 133.5-21.5 108-48 74.5-48 42-21.5q61 0 111.5 20t85.5 53.5 62 81 43 97.5 26.5 108.5 14 109 3.5 103.5zm-320-893q0 159-112.5 271.5t-271.5 112.5-271.5-112.5-112.5-271.5 112.5-271.5 271.5-112.5 271.5 112.5 112.5 271.5z"/></symbol><symbol id="icon-users" viewBox="0 0 1792 1792"><path d="M529 896q-162 5-265 128h-134q-82 0-138-40.5t-56-118.5q0-353 124-353 6 0 43.5 21t97.5 42.5 119 21.5q67 0 133-23-5 37-5 66 0 139 81 256zm1071 637q0 120-73 189.5t-194 69.5h-874q-121 0-194-69.5t-73-189.5q0-53 3.5-103.5t14-109 26.5-108.5 43-97.5 62-81 85.5-53.5 111.5-20q10 0 43 21.5t73 48 107 48 135 21.5 135-21.5 107-48 73-48 43-21.5q61 0 111.5 20t85.5 53.5 62 81 43 97.5 26.5 108.5 14 109 3.5 103.5zm-1024-1277q0 106-75 181t-181 75-181-75-75-181 75-181 181-75 181 75 75 181zm704 384q0 159-112.5 271.5t-271.5 112.5-271.5-112.5-112.5-271.5 112.5-271.5 271.5-112.5 271.5 112.5 112.5 271.5zm576 225q0 78-56 118.5t-138 40.5h-134q-103-123-265-128 81-117 81-256 0-29-5-66 66 23 133 23 59 0 119-21.5t97.5-42.5 43.5-21q124 0 124 353zm-128-609q0 106-75 181t-181 75-181-75-75-181 75-181 181-75 181 75 75 181z"/></symbol><symbol id="icon-vpn" viewBox="-675 677.2 1792 1792">
<path fill="000000" d="M215.8,1482.2h-65.9v78.6h65.9c24.4,0,42.8-15.3,42.8-39.3C258.6,1497,240.2,1482.2,215.8,1482.2z
   M968.5,1523.8L270.4,825.7c-27.3-27.3-71.5-27.3-98.8,0l-698.1,698.1c-27.3,27.3-27.3,71.5,0,98.8l698.1,698.1
  c27.3,27.3,71.5,27.3,98.8,0l698.1-698.1C995.8,1595.4,995.8,1551.1,968.5,1523.8z M-89.4,1718.8h-77.7l-112.6-291.2h70.7l80.8,224
  l80.3-224h70.7L-89.4,1718.8z M224.1,1615.4h-74.2v103.5h-62v-291.2h136.2c63.3,0,97.8,42.8,97.8,93.9
  C321.9,1572.1,287,1615.4,224.1,1615.4z M654,1718.8h-59.8l-138.8-189.9v189.9h-62v-291.2h63.7L592,1610.6v-182.9h62V1718.8z"/>
</symbol></svg>